<?xml version="1.0" encoding="UTF-8" standalone="no"?>
<!DOCTYPE svg PUBLIC "-//W3C//DTD SVG 1.1//EN"
 "http://www.w3.org/Graphics/SVG/1.1/DTD/svg11.dtd">
<!-- Generated by graphviz version 2.43.0 (0)
 -->
<!-- Title: G Pages: 1 -->
<svg width="656pt" height="1138pt"
 viewBox="0.00 0.00 656.37 1138.00" xmlns="http://www.w3.org/2000/svg" xmlns:xlink="http://www.w3.org/1999/xlink">
<g id="graph0" class="graph" transform="scale(1 1) rotate(0) translate(4 1134)">
<title>G</title>
<polygon fill="white" stroke="transparent" points="-4,4 -4,-1134 652.37,-1134 652.37,4 -4,4"/>
<g id="clust1" class="cluster">
<title>cluster_Global</title>
<path fill="none" stroke="gray" d="M33.69,-98C33.69,-98 628.37,-98 628.37,-98 634.37,-98 640.37,-104 640.37,-110 640.37,-110 640.37,-1110 640.37,-1110 640.37,-1116 634.37,-1122 628.37,-1122 628.37,-1122 33.69,-1122 33.69,-1122 27.69,-1122 21.69,-1116 21.69,-1110 21.69,-1110 21.69,-110 21.69,-110 21.69,-104 27.69,-98 33.69,-98"/>
<text text-anchor="middle" x="331.03" y="-1109.2" font-family="Times,serif" font-size="11.00" fill="gray">Global</text>
</g>
<g id="clust2" class="cluster">
<title>cluster_\App</title>
<path fill="none" stroke="gray" d="M41.69,-106C41.69,-106 620.37,-106 620.37,-106 626.37,-106 632.37,-112 632.37,-118 632.37,-118 632.37,-1082 632.37,-1082 632.37,-1088 626.37,-1094 620.37,-1094 620.37,-1094 41.69,-1094 41.69,-1094 35.69,-1094 29.69,-1088 29.69,-1082 29.69,-1082 29.69,-118 29.69,-118 29.69,-112 35.69,-106 41.69,-106"/>
<text text-anchor="middle" x="331.03" y="-1081.2" font-family="Times,serif" font-size="11.00" fill="gray">App</text>
</g>
<g id="clust3" class="cluster">
<title>cluster_\App\Http</title>
<path fill="none" stroke="gray" d="M49.69,-114C49.69,-114 612.37,-114 612.37,-114 618.37,-114 624.37,-120 624.37,-126 624.37,-126 624.37,-1054 624.37,-1054 624.37,-1060 618.37,-1066 612.37,-1066 612.37,-1066 49.69,-1066 49.69,-1066 43.69,-1066 37.69,-1060 37.69,-1054 37.69,-1054 37.69,-126 37.69,-126 37.69,-120 43.69,-114 49.69,-114"/>
<text text-anchor="middle" x="331.03" y="-1053.2" font-family="Times,serif" font-size="11.00" fill="gray">Http</text>
</g>
<g id="clust4" class="cluster">
<title>cluster_\App\Http\DTO</title>
<path fill="none" stroke="gray" d="M96.19,-696C96.19,-696 577.37,-696 577.37,-696 583.37,-696 589.37,-702 589.37,-708 589.37,-708 589.37,-1026 589.37,-1026 589.37,-1032 583.37,-1038 577.37,-1038 577.37,-1038 96.19,-1038 96.19,-1038 90.19,-1038 84.19,-1032 84.19,-1026 84.19,-1026 84.19,-708 84.19,-708 84.19,-702 90.19,-696 96.19,-696"/>
<text text-anchor="middle" x="336.78" y="-1025.2" font-family="Times,serif" font-size="11.00" fill="gray">DTO</text>
</g>
<g id="clust5" class="cluster">
<title>cluster_\App\Http\DTO\Layers</title>
<path fill="none" stroke="gray" d="M109.69,-830C109.69,-830 569.37,-830 569.37,-830 575.37,-830 581.37,-836 581.37,-842 581.37,-842 581.37,-998 581.37,-998 581.37,-1004 575.37,-1010 569.37,-1010 569.37,-1010 109.69,-1010 109.69,-1010 103.69,-1010 97.69,-1004 97.69,-998 97.69,-998 97.69,-842 97.69,-842 97.69,-836 103.69,-830 109.69,-830"/>
<text text-anchor="middle" x="339.53" y="-997.2" font-family="Times,serif" font-size="11.00" fill="gray">Layers</text>
</g>
<g id="clust6" class="cluster">
<title>cluster_\App\Http\DTO\Builder</title>
<path fill="none" stroke="gray" d="M442.37,-750C442.37,-750 552.37,-750 552.37,-750 558.37,-750 564.37,-756 564.37,-762 564.37,-762 564.37,-810 564.37,-810 564.37,-816 558.37,-822 552.37,-822 552.37,-822 442.37,-822 442.37,-822 436.37,-822 430.37,-816 430.37,-810 430.37,-810 430.37,-762 430.37,-762 430.37,-756 436.37,-750 442.37,-750"/>
<text text-anchor="middle" x="497.37" y="-809.2" font-family="Times,serif" font-size="11.00" fill="gray">Builder</text>
</g>
<g id="clust7" class="cluster">
<title>cluster_\App\Http\Document</title>
<path fill="none" stroke="gray" d="M465.87,-202C465.87,-202 528.87,-202 528.87,-202 534.87,-202 540.87,-208 540.87,-214 540.87,-214 540.87,-316 540.87,-316 540.87,-322 534.87,-328 528.87,-328 528.87,-328 465.87,-328 465.87,-328 459.87,-328 453.87,-322 453.87,-316 453.87,-316 453.87,-214 453.87,-214 453.87,-208 459.87,-202 465.87,-202"/>
<text text-anchor="middle" x="497.37" y="-315.2" font-family="Times,serif" font-size="11.00" fill="gray">Document</text>
</g>
<g id="clust8" class="cluster">
<title>cluster_\App\Http\Services</title>
<path fill="none" stroke="gray" d="M57.69,-336C57.69,-336 604.37,-336 604.37,-336 610.37,-336 616.37,-342 616.37,-348 616.37,-348 616.37,-676 616.37,-676 616.37,-682 610.37,-688 604.37,-688 604.37,-688 57.69,-688 57.69,-688 51.69,-688 45.69,-682 45.69,-676 45.69,-676 45.69,-348 45.69,-348 45.69,-342 51.69,-336 57.69,-336"/>
<text text-anchor="middle" x="331.03" y="-675.2" font-family="Times,serif" font-size="11.00" fill="gray">Services</text>
</g>
<g id="clust9" class="cluster">
<title>cluster_\App\Http\Services\Validations</title>
<path fill="none" stroke="gray" d="M65.69,-344C65.69,-344 596.37,-344 596.37,-344 602.37,-344 608.37,-350 608.37,-356 608.37,-356 608.37,-648 608.37,-648 608.37,-654 602.37,-660 596.37,-660 596.37,-660 65.69,-660 65.69,-660 59.69,-660 53.69,-654 53.69,-648 53.69,-648 53.69,-356 53.69,-356 53.69,-350 59.69,-344 65.69,-344"/>
<text text-anchor="middle" x="331.03" y="-647.2" font-family="Times,serif" font-size="11.00" fill="gray">Validations</text>
</g>
<g id="clust10" class="cluster">
<title>cluster_\App\Http\Services\Validations\NamesMap</title>
<path fill="none" stroke="gray" d="M468.37,-560C468.37,-560 525.37,-560 525.37,-560 531.37,-560 537.37,-566 537.37,-572 537.37,-572 537.37,-620 537.37,-620 537.37,-626 531.37,-632 525.37,-632 525.37,-632 468.37,-632 468.37,-632 462.37,-632 456.37,-626 456.37,-620 456.37,-620 456.37,-572 456.37,-572 456.37,-566 462.37,-560 468.37,-560"/>
<text text-anchor="middle" x="496.87" y="-619.2" font-family="Times,serif" font-size="11.00" fill="gray">NamesMap</text>
</g>
<g id="clust11" class="cluster">
<title>cluster_\App\Http\Controllers</title>
<path fill="none" stroke="gray" d="M442.37,-122C442.37,-122 552.37,-122 552.37,-122 558.37,-122 564.37,-128 564.37,-134 564.37,-134 564.37,-182 564.37,-182 564.37,-188 558.37,-194 552.37,-194 552.37,-194 442.37,-194 442.37,-194 436.37,-194 430.37,-188 430.37,-182 430.37,-182 430.37,-134 430.37,-134 430.37,-128 436.37,-122 442.37,-122"/>
<text text-anchor="middle" x="497.37" y="-181.2" font-family="Times,serif" font-size="11.00" fill="gray">Controllers</text>
</g>
<!-- \\App\\Http\\DTO\\Layers\\DiscountVerification -->
<g id="node1" class="node">
<title>\\App\\Http\\DTO\\Layers\\DiscountVerification</title>
<polygon fill="none" stroke="black" points="573.37,-874 421.37,-874 421.37,-838 573.37,-838 573.37,-874"/>
<text text-anchor="middle" x="497.37" y="-853.2" font-family="Courier,monospace" font-size="11.00">DiscountVerification</text>
</g>
<!-- \\App\\Http\\DTO\\Layers\\LayerInterface -->
<g id="node4" class="node">
<title>\\App\\Http\\DTO\\Layers\\LayerInterface</title>
<polygon fill="none" stroke="black" points="216.69,-928 105.69,-928 105.69,-892 216.69,-892 216.69,-928"/>
<text text-anchor="middle" x="161.19" y="-907.2" font-family="Courier,monospace" font-size="11.00">LayerInterface</text>
</g>
<!-- \\App\\Http\\DTO\\Layers\\DiscountVerification&#45;&gt;\\App\\Http\\DTO\\Layers\\LayerInterface -->
<g id="edge4" class="edge">
<title>\\App\\Http\\DTO\\Layers\\DiscountVerification&#45;&gt;\\App\\Http\\DTO\\Layers\\LayerInterface</title>
<path fill="none" stroke="black" stroke-dasharray="1,5" d="M421.13,-870.61C390.54,-876.35 354.82,-882.79 322.37,-888 291.01,-893.04 256.07,-897.92 226.85,-901.8"/>
<polygon fill="none" stroke="black" points="226.23,-898.35 216.77,-903.13 227.14,-905.29 226.23,-898.35"/>
</g>
<!-- \\App\\Http\\DTO\\Layers\\CalculateSubTotal -->
<g id="node2" class="node">
<title>\\App\\Http\\DTO\\Layers\\CalculateSubTotal</title>
<polygon fill="none" stroke="black" points="562.87,-982 431.87,-982 431.87,-946 562.87,-946 562.87,-982"/>
<text text-anchor="middle" x="497.37" y="-961.2" font-family="Courier,monospace" font-size="11.00">CalculateSubTotal</text>
</g>
<!-- \\App\\Http\\DTO\\Layers\\CalculateSubTotal&#45;&gt;\\App\\Http\\DTO\\Layers\\LayerInterface -->
<g id="edge7" class="edge">
<title>\\App\\Http\\DTO\\Layers\\CalculateSubTotal&#45;&gt;\\App\\Http\\DTO\\Layers\\LayerInterface</title>
<path fill="none" stroke="black" stroke-dasharray="1,5" d="M431.54,-953.52C372.51,-943.99 285.81,-929.98 226.83,-920.45"/>
<polygon fill="none" stroke="black" points="227.32,-916.98 216.89,-918.84 226.2,-923.89 227.32,-916.98"/>
</g>
<!-- \\App\\Http\\DTO\\Layers\\DiscountApplier -->
<g id="node3" class="node">
<title>\\App\\Http\\DTO\\Layers\\DiscountApplier</title>
<polygon fill="none" stroke="black" points="556.37,-928 438.37,-928 438.37,-892 556.37,-892 556.37,-928"/>
<text text-anchor="middle" x="497.37" y="-907.2" font-family="Courier,monospace" font-size="11.00">DiscountApplier</text>
</g>
<!-- \\App\\Http\\DTO\\Layers\\DiscountApplier&#45;&gt;\\App\\Http\\DTO\\Layers\\LayerInterface -->
<g id="edge12" class="edge">
<title>\\App\\Http\\DTO\\Layers\\DiscountApplier&#45;&gt;\\App\\Http\\DTO\\Layers\\LayerInterface</title>
<path fill="none" stroke="black" stroke-dasharray="1,5" d="M438.16,-910C379.21,-910 288.22,-910 227,-910"/>
<polygon fill="none" stroke="black" points="226.69,-906.5 216.69,-910 226.69,-913.5 226.69,-906.5"/>
</g>
<!-- \\App\\Http\\DTO\\Builder\\SaleDataBuilder -->
<g id="node5" class="node">
<title>\\App\\Http\\DTO\\Builder\\SaleDataBuilder</title>
<polygon fill="none" stroke="black" points="556.37,-794 438.37,-794 438.37,-758 556.37,-758 556.37,-794"/>
<text text-anchor="middle" x="497.37" y="-773.2" font-family="Courier,monospace" font-size="11.00">SaleDataBuilder</text>
</g>
<!-- \\App\\Http\\DTO\\SaleDataParameters -->
<g id="node6" class="node">
<title>\\App\\Http\\DTO\\SaleDataParameters</title>
<polygon fill="none" stroke="black" points="230.19,-740 92.19,-740 92.19,-704 230.19,-704 230.19,-740"/>
<text text-anchor="start" x="127.19" y="-725.2" font-family="Courier,monospace" font-size="11.00">«abstract»</text>
<text text-anchor="start" x="100.19" y="-713.2" font-family="Courier,monospace" font-size="11.00">SaleDataParameters</text>
</g>
<!-- \\App\\Http\\DTO\\SaleData -->
<g id="node7" class="node">
<title>\\App\\Http\\DTO\\SaleData</title>
<polygon fill="none" stroke="black" points="532.87,-740 461.87,-740 461.87,-704 532.87,-704 532.87,-740"/>
<text text-anchor="middle" x="497.37" y="-719.2" font-family="Courier,monospace" font-size="11.00">SaleData</text>
</g>
<!-- \\App\\Http\\DTO\\SaleData&#45;&gt;\\App\\Http\\DTO\\SaleDataParameters -->
<g id="edge8" class="edge">
<title>\\App\\Http\\DTO\\SaleData&#45;&gt;\\App\\Http\\DTO\\SaleDataParameters</title>
<path fill="none" stroke="black" d="M461.87,-722C409.97,-722 310.45,-722 240.37,-722"/>
<polygon fill="none" stroke="black" points="240.25,-718.5 230.25,-722 240.25,-725.5 240.25,-718.5"/>
</g>
<!-- \\JsonSerializable -->
<g id="node17" class="node">
<title>\\JsonSerializable</title>
<ellipse fill="none" stroke="black" cx="161.19" cy="-72" rx="87.99" ry="18"/>
<text text-anchor="middle" x="161.19" y="-68.3" font-family="Times,serif" font-size="14.00" fill="gray">\JsonSerializable</text>
</g>
<!-- \\App\\Http\\DTO\\SaleData&#45;&gt;\\JsonSerializable -->
<g id="edge9" class="edge">
<title>\\App\\Http\\DTO\\SaleData&#45;&gt;\\JsonSerializable</title>
<path fill="none" stroke="black" stroke-dasharray="1,5" d="M465.92,-703.94C442.85,-688.68 412.18,-664.75 394.37,-636 323.09,-520.89 373.68,-465.29 322.37,-340 283.58,-245.28 214.86,-144.48 181.47,-98.11"/>
<polygon fill="none" stroke="black" points="184.18,-95.87 175.47,-89.83 178.51,-99.98 184.18,-95.87"/>
</g>
<!-- \\App\\Http\\Document\\Product -->
<g id="node8" class="node">
<title>\\App\\Http\\Document\\Product</title>
<polygon fill="none" stroke="black" points="529.37,-300 465.37,-300 465.37,-264 529.37,-264 529.37,-300"/>
<text text-anchor="middle" x="497.37" y="-279.2" font-family="Courier,monospace" font-size="11.00">Product</text>
</g>
<!-- \\App\\Http\\Document\\Product&#45;&gt;\\JsonSerializable -->
<g id="edge1" class="edge">
<title>\\App\\Http\\Document\\Product&#45;&gt;\\JsonSerializable</title>
<path fill="none" stroke="black" stroke-dasharray="1,5" d="M465.3,-277.19C444.46,-273.16 416.82,-266.21 394.37,-255 309.78,-212.76 226.7,-136.55 186.76,-97.13"/>
<polygon fill="none" stroke="black" points="188.92,-94.34 179.36,-89.76 183.98,-99.3 188.92,-94.34"/>
</g>
<!-- \\App\\Http\\Document\\Discount -->
<g id="node9" class="node">
<title>\\App\\Http\\Document\\Discount</title>
<polygon fill="none" stroke="black" points="532.87,-246 461.87,-246 461.87,-210 532.87,-210 532.87,-246"/>
<text text-anchor="middle" x="497.37" y="-225.2" font-family="Courier,monospace" font-size="11.00">Discount</text>
</g>
<!-- \\App\\Http\\Document\\Discount&#45;&gt;\\JsonSerializable -->
<g id="edge11" class="edge">
<title>\\App\\Http\\Document\\Discount&#45;&gt;\\JsonSerializable</title>
<path fill="none" stroke="black" stroke-dasharray="1,5" d="M461.75,-219.76C441.71,-214.52 416.21,-207.02 394.37,-198 321.8,-168.03 242.45,-121.79 197.84,-94.45"/>
<polygon fill="none" stroke="black" points="199.48,-91.35 189.13,-89.08 195.81,-97.31 199.48,-91.35"/>
</g>
<!-- \\App\\Http\\Services\\Validations\\NamesMap\\Value -->
<g id="node10" class="node">
<title>\\App\\Http\\Services\\Validations\\NamesMap\\Value</title>
<polygon fill="none" stroke="black" points="524.37,-604 470.37,-604 470.37,-568 524.37,-568 524.37,-604"/>
<text text-anchor="middle" x="497.37" y="-583.2" font-family="Courier,monospace" font-size="11.00">Value</text>
</g>
<!-- \\App\\Http\\Services\\Validations\\DiscountForNewUsers -->
<g id="node11" class="node">
<title>\\App\\Http\\Services\\Validations\\DiscountForNewUsers</title>
<polygon fill="none" stroke="black" points="569.87,-550 424.87,-550 424.87,-514 569.87,-514 569.87,-550"/>
<text text-anchor="middle" x="497.37" y="-529.2" font-family="Courier,monospace" font-size="11.00">DiscountForNewUsers</text>
</g>
<!-- \\App\\Http\\Services\\Validations\\DiscountValidationInterface -->
<g id="node15" class="node">
<title>\\App\\Http\\Services\\Validations\\DiscountValidationInterface</title>
<polygon fill="none" stroke="black" points="260.69,-469 61.69,-469 61.69,-433 260.69,-433 260.69,-469"/>
<text text-anchor="middle" x="161.19" y="-448.2" font-family="Courier,monospace" font-size="11.00">DiscountValidationInterface</text>
</g>
<!-- \\App\\Http\\Services\\Validations\\DiscountForNewUsers&#45;&gt;\\App\\Http\\Services\\Validations\\DiscountValidationInterface -->
<g id="edge2" class="edge">
<title>\\App\\Http\\Services\\Validations\\DiscountForNewUsers&#45;&gt;\\App\\Http\\Services\\Validations\\DiscountValidationInterface</title>
<path fill="none" stroke="black" stroke-dasharray="1,5" d="M424.68,-514.62C372.39,-501.95 301.36,-484.73 246.38,-471.41"/>
<polygon fill="none" stroke="black" points="247.2,-468 236.65,-469.05 245.55,-474.81 247.2,-468"/>
</g>
<!-- \\App\\Http\\Services\\Validations\\DiscountByQuantityOfSameItem -->
<g id="node12" class="node">
<title>\\App\\Http\\Services\\Validations\\DiscountByQuantityOfSameItem</title>
<polygon fill="none" stroke="black" points="600.37,-496 394.37,-496 394.37,-460 600.37,-460 600.37,-496"/>
<text text-anchor="middle" x="497.37" y="-475.2" font-family="Courier,monospace" font-size="11.00">DiscountByQuantityOfSameItem</text>
</g>
<!-- \\App\\Http\\Services\\Validations\\DiscountByQuantityOfSameItem&#45;&gt;\\App\\Http\\Services\\Validations\\DiscountValidationInterface -->
<g id="edge3" class="edge">
<title>\\App\\Http\\Services\\Validations\\DiscountByQuantityOfSameItem&#45;&gt;\\App\\Http\\Services\\Validations\\DiscountValidationInterface</title>
<path fill="none" stroke="black" stroke-dasharray="1,5" d="M394.29,-469.75C355.18,-466.59 310.45,-462.98 270.75,-459.77"/>
<polygon fill="none" stroke="black" points="271.03,-456.28 260.78,-458.97 270.46,-463.26 271.03,-456.28"/>
</g>
<!-- \\App\\Http\\Services\\Validations\\DiscountForBeingEmployee -->
<g id="node13" class="node">
<title>\\App\\Http\\Services\\Validations\\DiscountForBeingEmployee</title>
<polygon fill="none" stroke="black" points="586.87,-442 407.87,-442 407.87,-406 586.87,-406 586.87,-442"/>
<text text-anchor="middle" x="497.37" y="-421.2" font-family="Courier,monospace" font-size="11.00">DiscountForBeingEmployee</text>
</g>
<!-- \\App\\Http\\Services\\Validations\\DiscountForBeingEmployee&#45;&gt;\\App\\Http\\Services\\Validations\\DiscountValidationInterface -->
<g id="edge5" class="edge">
<title>\\App\\Http\\Services\\Validations\\DiscountForBeingEmployee&#45;&gt;\\App\\Http\\Services\\Validations\\DiscountValidationInterface</title>
<path fill="none" stroke="black" stroke-dasharray="1,5" d="M407.69,-431.16C365.72,-434.56 315.2,-438.64 270.93,-442.21"/>
<polygon fill="none" stroke="black" points="270.39,-438.75 260.7,-443.04 270.95,-445.72 270.39,-438.75"/>
</g>
<!-- \\App\\Http\\Services\\Validations\\DiscountByValueOfCategory -->
<g id="node14" class="node">
<title>\\App\\Http\\Services\\Validations\\DiscountByValueOfCategory</title>
<polygon fill="none" stroke="black" points="589.87,-388 404.87,-388 404.87,-352 589.87,-352 589.87,-388"/>
<text text-anchor="middle" x="497.37" y="-367.2" font-family="Courier,monospace" font-size="11.00">DiscountByValueOfCategory</text>
</g>
<!-- \\App\\Http\\Services\\Validations\\DiscountByValueOfCategory&#45;&gt;\\App\\Http\\Services\\Validations\\DiscountValidationInterface -->
<g id="edge6" class="edge">
<title>\\App\\Http\\Services\\Validations\\DiscountByValueOfCategory&#45;&gt;\\App\\Http\\Services\\Validations\\DiscountValidationInterface</title>
<path fill="none" stroke="black" stroke-dasharray="1,5" d="M421.79,-388.08C369.82,-400.67 300.4,-417.5 246.43,-430.58"/>
<polygon fill="none" stroke="black" points="245.43,-427.22 236.54,-432.98 247.08,-434.02 245.43,-427.22"/>
</g>
<!-- \\App\\Http\\Controllers\\CartsController -->
<g id="node16" class="node">
<title>\\App\\Http\\Controllers\\CartsController</title>
<polygon fill="none" stroke="black" points="556.37,-166 438.37,-166 438.37,-130 556.37,-130 556.37,-166"/>
<text text-anchor="middle" x="497.37" y="-145.2" font-family="Courier,monospace" font-size="11.00">CartsController</text>
</g>
<!-- \\App\\Http\\Controllers\\Controller -->
<g id="node18" class="node">
<title>\\App\\Http\\Controllers\\Controller</title>
<ellipse fill="none" stroke="black" cx="161.19" cy="-18" rx="161.37" ry="18"/>
<text text-anchor="middle" x="161.19" y="-14.3" font-family="Times,serif" font-size="14.00" fill="gray">\App\Http\Controllers\Controller</text>
</g>
<!-- \\App\\Http\\Controllers\\CartsController&#45;&gt;\\App\\Http\\Controllers\\Controller -->
<g id="edge10" class="edge">
<title>\\App\\Http\\Controllers\\CartsController&#45;&gt;\\App\\Http\\Controllers\\Controller</title>
<path fill="none" stroke="black" d="M472.46,-129.93C440.19,-106.49 380.06,-66.11 322.37,-45 309.69,-40.36 296.15,-36.51 282.51,-33.32"/>
<polygon fill="none" stroke="black" points="283.1,-29.87 272.58,-31.11 281.58,-36.7 283.1,-29.87"/>
</g>
</g>
</svg>
