<?xml version="1.0" encoding="UTF-8" standalone="no"?>
<!DOCTYPE svg PUBLIC "-//W3C//DTD SVG 1.1//EN"
 "http://www.w3.org/Graphics/SVG/1.1/DTD/svg11.dtd">
<!-- Generated by graphviz version 2.43.0 (0)
 -->
<!-- Title: G Pages: 1 -->
<svg width="656pt" height="1192pt"
 viewBox="0.00 0.00 656.37 1192.00" xmlns="http://www.w3.org/2000/svg" xmlns:xlink="http://www.w3.org/1999/xlink">
<g id="graph0" class="graph" transform="scale(1 1) rotate(0) translate(4 1188)">
<title>G</title>
<polygon fill="white" stroke="transparent" points="-4,4 -4,-1188 652.37,-1188 652.37,4 -4,4"/>
<g id="clust1" class="cluster">
<title>cluster_Global</title>
<path fill="none" stroke="gray" d="M33.69,-98C33.69,-98 628.37,-98 628.37,-98 634.37,-98 640.37,-104 640.37,-110 640.37,-110 640.37,-1164 640.37,-1164 640.37,-1170 634.37,-1176 628.37,-1176 628.37,-1176 33.69,-1176 33.69,-1176 27.69,-1176 21.69,-1170 21.69,-1164 21.69,-1164 21.69,-110 21.69,-110 21.69,-104 27.69,-98 33.69,-98"/>
<text text-anchor="middle" x="331.03" y="-1163.2" font-family="Times,serif" font-size="11.00" fill="gray">Global</text>
</g>
<g id="clust2" class="cluster">
<title>cluster_\App</title>
<path fill="none" stroke="gray" d="M41.69,-106C41.69,-106 620.37,-106 620.37,-106 626.37,-106 632.37,-112 632.37,-118 632.37,-118 632.37,-1136 632.37,-1136 632.37,-1142 626.37,-1148 620.37,-1148 620.37,-1148 41.69,-1148 41.69,-1148 35.69,-1148 29.69,-1142 29.69,-1136 29.69,-1136 29.69,-118 29.69,-118 29.69,-112 35.69,-106 41.69,-106"/>
<text text-anchor="middle" x="331.03" y="-1135.2" font-family="Times,serif" font-size="11.00" fill="gray">App</text>
</g>
<g id="clust3" class="cluster">
<title>cluster_\App\Http</title>
<path fill="none" stroke="gray" d="M49.69,-114C49.69,-114 612.37,-114 612.37,-114 618.37,-114 624.37,-120 624.37,-126 624.37,-126 624.37,-1108 624.37,-1108 624.37,-1114 618.37,-1120 612.37,-1120 612.37,-1120 49.69,-1120 49.69,-1120 43.69,-1120 37.69,-1114 37.69,-1108 37.69,-1108 37.69,-126 37.69,-126 37.69,-120 43.69,-114 49.69,-114"/>
<text text-anchor="middle" x="331.03" y="-1107.2" font-family="Times,serif" font-size="11.00" fill="gray">Http</text>
</g>
<g id="clust4" class="cluster">
<title>cluster_\App\Http\DTO</title>
<path fill="none" stroke="gray" d="M96.19,-750C96.19,-750 577.37,-750 577.37,-750 583.37,-750 589.37,-756 589.37,-762 589.37,-762 589.37,-1080 589.37,-1080 589.37,-1086 583.37,-1092 577.37,-1092 577.37,-1092 96.19,-1092 96.19,-1092 90.19,-1092 84.19,-1086 84.19,-1080 84.19,-1080 84.19,-762 84.19,-762 84.19,-756 90.19,-750 96.19,-750"/>
<text text-anchor="middle" x="336.78" y="-1079.2" font-family="Times,serif" font-size="11.00" fill="gray">DTO</text>
</g>
<g id="clust5" class="cluster">
<title>cluster_\App\Http\DTO\Layers</title>
<path fill="none" stroke="gray" d="M109.69,-884C109.69,-884 569.37,-884 569.37,-884 575.37,-884 581.37,-890 581.37,-896 581.37,-896 581.37,-1052 581.37,-1052 581.37,-1058 575.37,-1064 569.37,-1064 569.37,-1064 109.69,-1064 109.69,-1064 103.69,-1064 97.69,-1058 97.69,-1052 97.69,-1052 97.69,-896 97.69,-896 97.69,-890 103.69,-884 109.69,-884"/>
<text text-anchor="middle" x="339.53" y="-1051.2" font-family="Times,serif" font-size="11.00" fill="gray">Layers</text>
</g>
<g id="clust6" class="cluster">
<title>cluster_\App\Http\DTO\Builder</title>
<path fill="none" stroke="gray" d="M442.37,-804C442.37,-804 552.37,-804 552.37,-804 558.37,-804 564.37,-810 564.37,-816 564.37,-816 564.37,-864 564.37,-864 564.37,-870 558.37,-876 552.37,-876 552.37,-876 442.37,-876 442.37,-876 436.37,-876 430.37,-870 430.37,-864 430.37,-864 430.37,-816 430.37,-816 430.37,-810 436.37,-804 442.37,-804"/>
<text text-anchor="middle" x="497.37" y="-863.2" font-family="Times,serif" font-size="11.00" fill="gray">Builder</text>
</g>
<g id="clust7" class="cluster">
<title>cluster_\App\Http\Document</title>
<path fill="none" stroke="gray" d="M465.87,-202C465.87,-202 528.87,-202 528.87,-202 534.87,-202 540.87,-208 540.87,-214 540.87,-214 540.87,-316 540.87,-316 540.87,-322 534.87,-328 528.87,-328 528.87,-328 465.87,-328 465.87,-328 459.87,-328 453.87,-322 453.87,-316 453.87,-316 453.87,-214 453.87,-214 453.87,-208 459.87,-202 465.87,-202"/>
<text text-anchor="middle" x="497.37" y="-315.2" font-family="Times,serif" font-size="11.00" fill="gray">Document</text>
</g>
<g id="clust8" class="cluster">
<title>cluster_\App\Http\Services</title>
<path fill="none" stroke="gray" d="M57.69,-336C57.69,-336 604.37,-336 604.37,-336 610.37,-336 616.37,-342 616.37,-348 616.37,-348 616.37,-730 616.37,-730 616.37,-736 610.37,-742 604.37,-742 604.37,-742 57.69,-742 57.69,-742 51.69,-742 45.69,-736 45.69,-730 45.69,-730 45.69,-348 45.69,-348 45.69,-342 51.69,-336 57.69,-336"/>
<text text-anchor="middle" x="331.03" y="-729.2" font-family="Times,serif" font-size="11.00" fill="gray">Services</text>
</g>
<g id="clust9" class="cluster">
<title>cluster_\App\Http\Services\Validations</title>
<path fill="none" stroke="gray" d="M65.69,-344C65.69,-344 596.37,-344 596.37,-344 602.37,-344 608.37,-350 608.37,-356 608.37,-356 608.37,-702 608.37,-702 608.37,-708 602.37,-714 596.37,-714 596.37,-714 65.69,-714 65.69,-714 59.69,-714 53.69,-708 53.69,-702 53.69,-702 53.69,-356 53.69,-356 53.69,-350 59.69,-344 65.69,-344"/>
<text text-anchor="middle" x="331.03" y="-701.2" font-family="Times,serif" font-size="11.00" fill="gray">Validations</text>
</g>
<g id="clust10" class="cluster">
<title>cluster_\App\Http\Services\Validations\NamesMap</title>
<path fill="none" stroke="gray" d="M468.37,-614C468.37,-614 525.37,-614 525.37,-614 531.37,-614 537.37,-620 537.37,-626 537.37,-626 537.37,-674 537.37,-674 537.37,-680 531.37,-686 525.37,-686 525.37,-686 468.37,-686 468.37,-686 462.37,-686 456.37,-680 456.37,-674 456.37,-674 456.37,-626 456.37,-626 456.37,-620 462.37,-614 468.37,-614"/>
<text text-anchor="middle" x="496.87" y="-673.2" font-family="Times,serif" font-size="11.00" fill="gray">NamesMap</text>
</g>
<g id="clust11" class="cluster">
<title>cluster_\App\Http\Controllers</title>
<path fill="none" stroke="gray" d="M442.37,-122C442.37,-122 552.37,-122 552.37,-122 558.37,-122 564.37,-128 564.37,-134 564.37,-134 564.37,-182 564.37,-182 564.37,-188 558.37,-194 552.37,-194 552.37,-194 442.37,-194 442.37,-194 436.37,-194 430.37,-188 430.37,-182 430.37,-182 430.37,-134 430.37,-134 430.37,-128 436.37,-122 442.37,-122"/>
<text text-anchor="middle" x="497.37" y="-181.2" font-family="Times,serif" font-size="11.00" fill="gray">Controllers</text>
</g>
<!-- \\App\\Http\\DTO\\Layers\\DiscountVerification -->
<g id="node1" class="node">
<title>\\App\\Http\\DTO\\Layers\\DiscountVerification</title>
<polygon fill="none" stroke="black" points="573.37,-982 421.37,-982 421.37,-946 573.37,-946 573.37,-982"/>
<text text-anchor="middle" x="497.37" y="-961.2" font-family="Courier,monospace" font-size="11.00">DiscountVerification</text>
</g>
<!-- \\App\\Http\\DTO\\Layers\\LayerInterface -->
<g id="node4" class="node">
<title>\\App\\Http\\DTO\\Layers\\LayerInterface</title>
<polygon fill="none" stroke="black" points="216.69,-982 105.69,-982 105.69,-946 216.69,-946 216.69,-982"/>
<text text-anchor="middle" x="161.19" y="-961.2" font-family="Courier,monospace" font-size="11.00">LayerInterface</text>
</g>
<!-- \\App\\Http\\DTO\\Layers\\DiscountVerification&#45;&gt;\\App\\Http\\DTO\\Layers\\LayerInterface -->
<g id="edge4" class="edge">
<title>\\App\\Http\\DTO\\Layers\\DiscountVerification&#45;&gt;\\App\\Http\\DTO\\Layers\\LayerInterface</title>
<path fill="none" stroke="black" stroke-dasharray="1,5" d="M420.96,-964C362.51,-964 282.39,-964 226.85,-964"/>
<polygon fill="none" stroke="black" points="226.78,-960.5 216.78,-964 226.78,-967.5 226.78,-960.5"/>
</g>
<!-- \\App\\Http\\DTO\\Layers\\CalculateSubTotal -->
<g id="node2" class="node">
<title>\\App\\Http\\DTO\\Layers\\CalculateSubTotal</title>
<polygon fill="none" stroke="black" points="562.87,-928 431.87,-928 431.87,-892 562.87,-892 562.87,-928"/>
<text text-anchor="middle" x="497.37" y="-907.2" font-family="Courier,monospace" font-size="11.00">CalculateSubTotal</text>
</g>
<!-- \\App\\Http\\DTO\\Layers\\CalculateSubTotal&#45;&gt;\\App\\Http\\DTO\\Layers\\LayerInterface -->
<g id="edge8" class="edge">
<title>\\App\\Http\\DTO\\Layers\\CalculateSubTotal&#45;&gt;\\App\\Http\\DTO\\Layers\\LayerInterface</title>
<path fill="none" stroke="black" stroke-dasharray="1,5" d="M431.63,-922.63C398.93,-928.82 358.61,-936.18 322.37,-942 291.01,-947.04 256.07,-951.92 226.85,-955.8"/>
<polygon fill="none" stroke="black" points="226.23,-952.35 216.77,-957.13 227.14,-959.29 226.23,-952.35"/>
</g>
<!-- \\App\\Http\\DTO\\Layers\\DiscountApplier -->
<g id="node3" class="node">
<title>\\App\\Http\\DTO\\Layers\\DiscountApplier</title>
<polygon fill="none" stroke="black" points="556.37,-1036 438.37,-1036 438.37,-1000 556.37,-1000 556.37,-1036"/>
<text text-anchor="middle" x="497.37" y="-1015.2" font-family="Courier,monospace" font-size="11.00">DiscountApplier</text>
</g>
<!-- \\App\\Http\\DTO\\Layers\\DiscountApplier&#45;&gt;\\App\\Http\\DTO\\Layers\\LayerInterface -->
<g id="edge13" class="edge">
<title>\\App\\Http\\DTO\\Layers\\DiscountApplier&#45;&gt;\\App\\Http\\DTO\\Layers\\LayerInterface</title>
<path fill="none" stroke="black" stroke-dasharray="1,5" d="M438.16,-1008.59C379.08,-999.05 287.84,-984.3 226.62,-974.41"/>
<polygon fill="none" stroke="black" points="227.12,-970.95 216.69,-972.81 226,-977.86 227.12,-970.95"/>
</g>
<!-- \\App\\Http\\DTO\\Builder\\SaleDataBuilder -->
<g id="node5" class="node">
<title>\\App\\Http\\DTO\\Builder\\SaleDataBuilder</title>
<polygon fill="none" stroke="black" points="556.37,-848 438.37,-848 438.37,-812 556.37,-812 556.37,-848"/>
<text text-anchor="middle" x="497.37" y="-827.2" font-family="Courier,monospace" font-size="11.00">SaleDataBuilder</text>
</g>
<!-- \\App\\Http\\DTO\\SaleDataParameters -->
<g id="node6" class="node">
<title>\\App\\Http\\DTO\\SaleDataParameters</title>
<polygon fill="none" stroke="black" points="230.19,-794 92.19,-794 92.19,-758 230.19,-758 230.19,-794"/>
<text text-anchor="start" x="127.19" y="-779.2" font-family="Courier,monospace" font-size="11.00">«abstract»</text>
<text text-anchor="start" x="100.19" y="-767.2" font-family="Courier,monospace" font-size="11.00">SaleDataParameters</text>
</g>
<!-- \\App\\Http\\DTO\\SaleData -->
<g id="node7" class="node">
<title>\\App\\Http\\DTO\\SaleData</title>
<polygon fill="none" stroke="black" points="532.87,-794 461.87,-794 461.87,-758 532.87,-758 532.87,-794"/>
<text text-anchor="middle" x="497.37" y="-773.2" font-family="Courier,monospace" font-size="11.00">SaleData</text>
</g>
<!-- \\App\\Http\\DTO\\SaleData&#45;&gt;\\App\\Http\\DTO\\SaleDataParameters -->
<g id="edge9" class="edge">
<title>\\App\\Http\\DTO\\SaleData&#45;&gt;\\App\\Http\\DTO\\SaleDataParameters</title>
<path fill="none" stroke="black" d="M461.87,-776C409.97,-776 310.45,-776 240.37,-776"/>
<polygon fill="none" stroke="black" points="240.25,-772.5 230.25,-776 240.25,-779.5 240.25,-772.5"/>
</g>
<!-- \\JsonSerializable -->
<g id="node18" class="node">
<title>\\JsonSerializable</title>
<ellipse fill="none" stroke="black" cx="161.19" cy="-72" rx="87.99" ry="18"/>
<text text-anchor="middle" x="161.19" y="-68.3" font-family="Times,serif" font-size="14.00" fill="gray">\JsonSerializable</text>
</g>
<!-- \\App\\Http\\DTO\\SaleData&#45;&gt;\\JsonSerializable -->
<g id="edge10" class="edge">
<title>\\App\\Http\\DTO\\SaleData&#45;&gt;\\JsonSerializable</title>
<path fill="none" stroke="black" stroke-dasharray="1,5" d="M465.16,-757.8C441.98,-742.62 411.54,-718.87 394.37,-690 313.18,-553.51 379.92,-488.02 322.37,-340 285.37,-244.84 216.1,-144.62 182.08,-98.31"/>
<polygon fill="none" stroke="black" points="184.72,-96 175.95,-90.04 179.09,-100.16 184.72,-96"/>
</g>
<!-- \\App\\Http\\Document\\Product -->
<g id="node8" class="node">
<title>\\App\\Http\\Document\\Product</title>
<polygon fill="none" stroke="black" points="529.37,-300 465.37,-300 465.37,-264 529.37,-264 529.37,-300"/>
<text text-anchor="middle" x="497.37" y="-279.2" font-family="Courier,monospace" font-size="11.00">Product</text>
</g>
<!-- \\App\\Http\\Document\\Product&#45;&gt;\\JsonSerializable -->
<g id="edge1" class="edge">
<title>\\App\\Http\\Document\\Product&#45;&gt;\\JsonSerializable</title>
<path fill="none" stroke="black" stroke-dasharray="1,5" d="M465.3,-277.19C444.46,-273.16 416.82,-266.21 394.37,-255 309.78,-212.76 226.7,-136.55 186.76,-97.13"/>
<polygon fill="none" stroke="black" points="188.92,-94.34 179.36,-89.76 183.98,-99.3 188.92,-94.34"/>
</g>
<!-- \\App\\Http\\Document\\Discount -->
<g id="node9" class="node">
<title>\\App\\Http\\Document\\Discount</title>
<polygon fill="none" stroke="black" points="532.87,-246 461.87,-246 461.87,-210 532.87,-210 532.87,-246"/>
<text text-anchor="middle" x="497.37" y="-225.2" font-family="Courier,monospace" font-size="11.00">Discount</text>
</g>
<!-- \\App\\Http\\Document\\Discount&#45;&gt;\\JsonSerializable -->
<g id="edge12" class="edge">
<title>\\App\\Http\\Document\\Discount&#45;&gt;\\JsonSerializable</title>
<path fill="none" stroke="black" stroke-dasharray="1,5" d="M461.75,-219.76C441.71,-214.52 416.21,-207.02 394.37,-198 321.8,-168.03 242.45,-121.79 197.84,-94.45"/>
<polygon fill="none" stroke="black" points="199.48,-91.35 189.13,-89.08 195.81,-97.31 199.48,-91.35"/>
</g>
<!-- \\App\\Http\\Services\\Validations\\NamesMap\\Value -->
<g id="node10" class="node">
<title>\\App\\Http\\Services\\Validations\\NamesMap\\Value</title>
<polygon fill="none" stroke="black" points="524.37,-658 470.37,-658 470.37,-622 524.37,-622 524.37,-658"/>
<text text-anchor="middle" x="497.37" y="-637.2" font-family="Courier,monospace" font-size="11.00">Value</text>
</g>
<!-- \\App\\Http\\Services\\Validations\\DiscountForNewUsers -->
<g id="node11" class="node">
<title>\\App\\Http\\Services\\Validations\\DiscountForNewUsers</title>
<polygon fill="none" stroke="black" points="569.87,-604 424.87,-604 424.87,-568 569.87,-568 569.87,-604"/>
<text text-anchor="middle" x="497.37" y="-583.2" font-family="Courier,monospace" font-size="11.00">DiscountForNewUsers</text>
</g>
<!-- \\App\\Http\\Services\\Validations\\DiscountValidationInterface -->
<g id="node16" class="node">
<title>\\App\\Http\\Services\\Validations\\DiscountValidationInterface</title>
<polygon fill="none" stroke="black" points="260.69,-496 61.69,-496 61.69,-460 260.69,-460 260.69,-496"/>
<text text-anchor="middle" x="161.19" y="-475.2" font-family="Courier,monospace" font-size="11.00">DiscountValidationInterface</text>
</g>
<!-- \\App\\Http\\Services\\Validations\\DiscountForNewUsers&#45;&gt;\\App\\Http\\Services\\Validations\\DiscountValidationInterface -->
<g id="edge2" class="edge">
<title>\\App\\Http\\Services\\Validations\\DiscountForNewUsers&#45;&gt;\\App\\Http\\Services\\Validations\\DiscountValidationInterface</title>
<path fill="none" stroke="black" stroke-dasharray="1,5" d="M425.39,-567.96C414.95,-565.09 404.35,-562.06 394.37,-559 334.35,-540.62 266.68,-516.63 219.94,-499.54"/>
<polygon fill="none" stroke="black" points="220.89,-496.16 210.3,-496 218.48,-502.73 220.89,-496.16"/>
</g>
<!-- \\App\\Http\\Services\\Validations\\DiscountByQuantityOfSameItem -->
<g id="node12" class="node">
<title>\\App\\Http\\Services\\Validations\\DiscountByQuantityOfSameItem</title>
<polygon fill="none" stroke="black" points="600.37,-550 394.37,-550 394.37,-514 600.37,-514 600.37,-550"/>
<text text-anchor="middle" x="497.37" y="-529.2" font-family="Courier,monospace" font-size="11.00">DiscountByQuantityOfSameItem</text>
</g>
<!-- \\App\\Http\\Services\\Validations\\DiscountByQuantityOfSameItem&#45;&gt;\\App\\Http\\Services\\Validations\\DiscountValidationInterface -->
<g id="edge3" class="edge">
<title>\\App\\Http\\Services\\Validations\\DiscountByQuantityOfSameItem&#45;&gt;\\App\\Http\\Services\\Validations\\DiscountValidationInterface</title>
<path fill="none" stroke="black" stroke-dasharray="1,5" d="M394.29,-515.5C355.18,-509.19 310.45,-501.96 270.75,-495.54"/>
<polygon fill="none" stroke="black" points="271.21,-492.07 260.78,-493.93 270.09,-498.98 271.21,-492.07"/>
</g>
<!-- \\App\\Http\\Services\\Validations\\DiscountForBeingEmployee -->
<g id="node13" class="node">
<title>\\App\\Http\\Services\\Validations\\DiscountForBeingEmployee</title>
<polygon fill="none" stroke="black" points="586.87,-496 407.87,-496 407.87,-460 586.87,-460 586.87,-496"/>
<text text-anchor="middle" x="497.37" y="-475.2" font-family="Courier,monospace" font-size="11.00">DiscountForBeingEmployee</text>
</g>
<!-- \\App\\Http\\Services\\Validations\\DiscountForBeingEmployee&#45;&gt;\\App\\Http\\Services\\Validations\\DiscountValidationInterface -->
<g id="edge5" class="edge">
<title>\\App\\Http\\Services\\Validations\\DiscountForBeingEmployee&#45;&gt;\\App\\Http\\Services\\Validations\\DiscountValidationInterface</title>
<path fill="none" stroke="black" stroke-dasharray="1,5" d="M407.69,-478C365.72,-478 315.2,-478 270.93,-478"/>
<polygon fill="none" stroke="black" points="270.7,-474.5 260.7,-478 270.7,-481.5 270.7,-474.5"/>
</g>
<!-- \\App\\Http\\Services\\Validations\\DiscountByTotalValue -->
<g id="node14" class="node">
<title>\\App\\Http\\Services\\Validations\\DiscountByTotalValue</title>
<polygon fill="none" stroke="black" points="573.37,-442 421.37,-442 421.37,-406 573.37,-406 573.37,-442"/>
<text text-anchor="middle" x="497.37" y="-421.2" font-family="Courier,monospace" font-size="11.00">DiscountByTotalValue</text>
</g>
<!-- \\App\\Http\\Services\\Validations\\DiscountByTotalValue&#45;&gt;\\App\\Http\\Services\\Validations\\DiscountValidationInterface -->
<g id="edge6" class="edge">
<title>\\App\\Http\\Services\\Validations\\DiscountByTotalValue&#45;&gt;\\App\\Http\\Services\\Validations\\DiscountValidationInterface</title>
<path fill="none" stroke="black" stroke-dasharray="1,5" d="M420.96,-436.19C376.65,-443.35 319.89,-452.52 270.83,-460.45"/>
<polygon fill="none" stroke="black" points="270.12,-457.01 260.8,-462.06 271.23,-463.92 270.12,-457.01"/>
</g>
<!-- \\App\\Http\\Services\\Validations\\DiscountByValueOfCategory -->
<g id="node15" class="node">
<title>\\App\\Http\\Services\\Validations\\DiscountByValueOfCategory</title>
<polygon fill="none" stroke="black" points="589.87,-388 404.87,-388 404.87,-352 589.87,-352 589.87,-388"/>
<text text-anchor="middle" x="497.37" y="-367.2" font-family="Courier,monospace" font-size="11.00">DiscountByValueOfCategory</text>
</g>
<!-- \\App\\Http\\Services\\Validations\\DiscountByValueOfCategory&#45;&gt;\\App\\Http\\Services\\Validations\\DiscountValidationInterface -->
<g id="edge7" class="edge">
<title>\\App\\Http\\Services\\Validations\\DiscountByValueOfCategory&#45;&gt;\\App\\Http\\Services\\Validations\\DiscountValidationInterface</title>
<path fill="none" stroke="black" stroke-dasharray="1,5" d="M425.39,-388.04C414.95,-390.91 404.35,-393.94 394.37,-397 334.35,-415.38 266.68,-439.37 219.94,-456.46"/>
<polygon fill="none" stroke="black" points="218.48,-453.27 210.3,-460 220.89,-459.84 218.48,-453.27"/>
</g>
<!-- \\App\\Http\\Controllers\\CartsController -->
<g id="node17" class="node">
<title>\\App\\Http\\Controllers\\CartsController</title>
<polygon fill="none" stroke="black" points="556.37,-166 438.37,-166 438.37,-130 556.37,-130 556.37,-166"/>
<text text-anchor="middle" x="497.37" y="-145.2" font-family="Courier,monospace" font-size="11.00">CartsController</text>
</g>
<!-- \\App\\Http\\Controllers\\Controller -->
<g id="node19" class="node">
<title>\\App\\Http\\Controllers\\Controller</title>
<ellipse fill="none" stroke="black" cx="161.19" cy="-18" rx="161.37" ry="18"/>
<text text-anchor="middle" x="161.19" y="-14.3" font-family="Times,serif" font-size="14.00" fill="gray">\App\Http\Controllers\Controller</text>
</g>
<!-- \\App\\Http\\Controllers\\CartsController&#45;&gt;\\App\\Http\\Controllers\\Controller -->
<g id="edge11" class="edge">
<title>\\App\\Http\\Controllers\\CartsController&#45;&gt;\\App\\Http\\Controllers\\Controller</title>
<path fill="none" stroke="black" d="M472.46,-129.93C440.19,-106.49 380.06,-66.11 322.37,-45 309.69,-40.36 296.15,-36.51 282.51,-33.32"/>
<polygon fill="none" stroke="black" points="283.1,-29.87 272.58,-31.11 281.58,-36.7 283.1,-29.87"/>
</g>
</g>
</svg>
