<?xml version="1.0" encoding="UTF-8" standalone="no"?>
<!DOCTYPE svg PUBLIC "-//W3C//DTD SVG 1.1//EN"
 "http://www.w3.org/Graphics/SVG/1.1/DTD/svg11.dtd">
<!-- Generated by graphviz version 2.43.0 (0)
 -->
<!-- Title: G Pages: 1 -->
<svg width="683pt" height="1218pt"
 viewBox="0.00 0.00 683.37 1218.00" xmlns="http://www.w3.org/2000/svg" xmlns:xlink="http://www.w3.org/1999/xlink">
<g id="graph0" class="graph" transform="scale(1 1) rotate(0) translate(4 1214)">
<title>G</title>
<polygon fill="white" stroke="transparent" points="-4,4 -4,-1214 679.37,-1214 679.37,4 -4,4"/>
<g id="clust1" class="cluster">
<title>cluster_Global</title>
<path fill="none" stroke="gray" d="M33.69,-44C33.69,-44 655.37,-44 655.37,-44 661.37,-44 667.37,-50 667.37,-56 667.37,-56 667.37,-1190 667.37,-1190 667.37,-1196 661.37,-1202 655.37,-1202 655.37,-1202 33.69,-1202 33.69,-1202 27.69,-1202 21.69,-1196 21.69,-1190 21.69,-1190 21.69,-56 21.69,-56 21.69,-50 27.69,-44 33.69,-44"/>
<text text-anchor="middle" x="344.53" y="-1189.2" font-family="Times,serif" font-size="11.00" fill="gray">Global</text>
</g>
<g id="clust2" class="cluster">
<title>cluster_\App</title>
<path fill="none" stroke="gray" d="M41.69,-52C41.69,-52 647.37,-52 647.37,-52 653.37,-52 659.37,-58 659.37,-64 659.37,-64 659.37,-1162 659.37,-1162 659.37,-1168 653.37,-1174 647.37,-1174 647.37,-1174 41.69,-1174 41.69,-1174 35.69,-1174 29.69,-1168 29.69,-1162 29.69,-1162 29.69,-64 29.69,-64 29.69,-58 35.69,-52 41.69,-52"/>
<text text-anchor="middle" x="344.53" y="-1161.2" font-family="Times,serif" font-size="11.00" fill="gray">App</text>
</g>
<g id="clust3" class="cluster">
<title>cluster_\App\Http</title>
<path fill="none" stroke="gray" d="M49.69,-60C49.69,-60 639.37,-60 639.37,-60 645.37,-60 651.37,-66 651.37,-72 651.37,-72 651.37,-1134 651.37,-1134 651.37,-1140 645.37,-1146 639.37,-1146 639.37,-1146 49.69,-1146 49.69,-1146 43.69,-1146 37.69,-1140 37.69,-1134 37.69,-1134 37.69,-72 37.69,-72 37.69,-66 43.69,-60 49.69,-60"/>
<text text-anchor="middle" x="344.53" y="-1133.2" font-family="Times,serif" font-size="11.00" fill="gray">Http</text>
</g>
<g id="clust4" class="cluster">
<title>cluster_\App\Http\DTO</title>
<path fill="none" stroke="gray" d="M101.69,-776C101.69,-776 590.87,-776 590.87,-776 596.87,-776 602.87,-782 602.87,-788 602.87,-788 602.87,-1106 602.87,-1106 602.87,-1112 596.87,-1118 590.87,-1118 590.87,-1118 101.69,-1118 101.69,-1118 95.69,-1118 89.69,-1112 89.69,-1106 89.69,-1106 89.69,-788 89.69,-788 89.69,-782 95.69,-776 101.69,-776"/>
<text text-anchor="middle" x="346.28" y="-1105.2" font-family="Times,serif" font-size="11.00" fill="gray">DTO</text>
</g>
<g id="clust5" class="cluster">
<title>cluster_\App\Http\DTO\Layers</title>
<path fill="none" stroke="gray" d="M109.69,-910C109.69,-910 582.87,-910 582.87,-910 588.87,-910 594.87,-916 594.87,-922 594.87,-922 594.87,-1078 594.87,-1078 594.87,-1084 588.87,-1090 582.87,-1090 582.87,-1090 109.69,-1090 109.69,-1090 103.69,-1090 97.69,-1084 97.69,-1078 97.69,-1078 97.69,-922 97.69,-922 97.69,-916 103.69,-910 109.69,-910"/>
<text text-anchor="middle" x="346.28" y="-1077.2" font-family="Times,serif" font-size="11.00" fill="gray">Layers</text>
</g>
<g id="clust6" class="cluster">
<title>cluster_\App\Http\DTO\Builder</title>
<path fill="none" stroke="gray" d="M455.87,-830C455.87,-830 565.87,-830 565.87,-830 571.87,-830 577.87,-836 577.87,-842 577.87,-842 577.87,-890 577.87,-890 577.87,-896 571.87,-902 565.87,-902 565.87,-902 455.87,-902 455.87,-902 449.87,-902 443.87,-896 443.87,-890 443.87,-890 443.87,-842 443.87,-842 443.87,-836 449.87,-830 455.87,-830"/>
<text text-anchor="middle" x="510.87" y="-889.2" font-family="Times,serif" font-size="11.00" fill="gray">Builder</text>
</g>
<g id="clust7" class="cluster">
<title>cluster_\App\Http\Document</title>
<path fill="none" stroke="gray" d="M479.37,-642C479.37,-642 542.37,-642 542.37,-642 548.37,-642 554.37,-648 554.37,-654 554.37,-654 554.37,-756 554.37,-756 554.37,-762 548.37,-768 542.37,-768 542.37,-768 479.37,-768 479.37,-768 473.37,-768 467.37,-762 467.37,-756 467.37,-756 467.37,-654 467.37,-654 467.37,-648 473.37,-642 479.37,-642"/>
<text text-anchor="middle" x="510.87" y="-755.2" font-family="Times,serif" font-size="11.00" fill="gray">Document</text>
</g>
<g id="clust8" class="cluster">
<title>cluster_\App\Http\Services</title>
<path fill="none" stroke="gray" d="M57.69,-148C57.69,-148 631.37,-148 631.37,-148 637.37,-148 643.37,-154 643.37,-160 643.37,-160 643.37,-622 643.37,-622 643.37,-628 637.37,-634 631.37,-634 631.37,-634 57.69,-634 57.69,-634 51.69,-634 45.69,-628 45.69,-622 45.69,-622 45.69,-160 45.69,-160 45.69,-154 51.69,-148 57.69,-148"/>
<text text-anchor="middle" x="344.53" y="-621.2" font-family="Times,serif" font-size="11.00" fill="gray">Services</text>
</g>
<g id="clust9" class="cluster">
<title>cluster_\App\Http\Services\Validations</title>
<path fill="none" stroke="gray" d="M65.69,-236C65.69,-236 623.37,-236 623.37,-236 629.37,-236 635.37,-242 635.37,-248 635.37,-248 635.37,-594 635.37,-594 635.37,-600 629.37,-606 623.37,-606 623.37,-606 65.69,-606 65.69,-606 59.69,-606 53.69,-600 53.69,-594 53.69,-594 53.69,-248 53.69,-248 53.69,-242 59.69,-236 65.69,-236"/>
<text text-anchor="middle" x="344.53" y="-593.2" font-family="Times,serif" font-size="11.00" fill="gray">Validations</text>
</g>
<g id="clust10" class="cluster">
<title>cluster_\App\Http\Services\Validations\NamesMap</title>
<path fill="none" stroke="gray" d="M481.87,-506C481.87,-506 538.87,-506 538.87,-506 544.87,-506 550.87,-512 550.87,-518 550.87,-518 550.87,-566 550.87,-566 550.87,-572 544.87,-578 538.87,-578 538.87,-578 481.87,-578 481.87,-578 475.87,-578 469.87,-572 469.87,-566 469.87,-566 469.87,-518 469.87,-518 469.87,-512 475.87,-506 481.87,-506"/>
<text text-anchor="middle" x="510.37" y="-565.2" font-family="Times,serif" font-size="11.00" fill="gray">NamesMap</text>
</g>
<g id="clust11" class="cluster">
<title>cluster_\App\Http\Services\helpers</title>
<path fill="none" stroke="gray" d="M449.37,-156C449.37,-156 572.37,-156 572.37,-156 578.37,-156 584.37,-162 584.37,-168 584.37,-168 584.37,-216 584.37,-216 584.37,-222 578.37,-228 572.37,-228 572.37,-228 449.37,-228 449.37,-228 443.37,-228 437.37,-222 437.37,-216 437.37,-216 437.37,-168 437.37,-168 437.37,-162 443.37,-156 449.37,-156"/>
<text text-anchor="middle" x="510.87" y="-215.2" font-family="Times,serif" font-size="11.00" fill="gray">helpers</text>
</g>
<g id="clust12" class="cluster">
<title>cluster_\App\Http\Controllers</title>
<path fill="none" stroke="gray" d="M455.87,-68C455.87,-68 565.87,-68 565.87,-68 571.87,-68 577.87,-74 577.87,-80 577.87,-80 577.87,-128 577.87,-128 577.87,-134 571.87,-140 565.87,-140 565.87,-140 455.87,-140 455.87,-140 449.87,-140 443.87,-134 443.87,-128 443.87,-128 443.87,-80 443.87,-80 443.87,-74 449.87,-68 455.87,-68"/>
<text text-anchor="middle" x="510.87" y="-127.2" font-family="Times,serif" font-size="11.00" fill="gray">Controllers</text>
</g>
<!-- \\App\\Http\\DTO\\Layers\\DiscountVerification -->
<g id="node1" class="node">
<title>\\App\\Http\\DTO\\Layers\\DiscountVerification</title>
<polygon fill="none" stroke="black" points="586.87,-1062 434.87,-1062 434.87,-1026 586.87,-1026 586.87,-1062"/>
<text text-anchor="middle" x="510.87" y="-1041.2" font-family="Courier,monospace" font-size="11.00">DiscountVerification</text>
</g>
<!-- \\App\\Http\\DTO\\Layers\\LayerInterface -->
<g id="node4" class="node">
<title>\\App\\Http\\DTO\\Layers\\LayerInterface</title>
<polygon fill="none" stroke="black" points="216.69,-1008 105.69,-1008 105.69,-972 216.69,-972 216.69,-1008"/>
<text text-anchor="middle" x="161.19" y="-987.2" font-family="Courier,monospace" font-size="11.00">LayerInterface</text>
</g>
<!-- \\App\\Http\\DTO\\Layers\\DiscountVerification&#45;&gt;\\App\\Http\\DTO\\Layers\\LayerInterface -->
<g id="edge3" class="edge">
<title>\\App\\Http\\DTO\\Layers\\DiscountVerification&#45;&gt;\\App\\Http\\DTO\\Layers\\LayerInterface</title>
<path fill="none" stroke="black" stroke-dasharray="1,5" d="M434.86,-1032.35C372.87,-1022.72 285.77,-1009.19 226.82,-1000.04"/>
<polygon fill="none" stroke="black" points="227.3,-996.57 216.88,-998.5 226.23,-1003.49 227.3,-996.57"/>
</g>
<!-- \\App\\Http\\DTO\\Layers\\CalculateSubTotal -->
<g id="node2" class="node">
<title>\\App\\Http\\DTO\\Layers\\CalculateSubTotal</title>
<polygon fill="none" stroke="black" points="576.37,-1008 445.37,-1008 445.37,-972 576.37,-972 576.37,-1008"/>
<text text-anchor="middle" x="510.87" y="-987.2" font-family="Courier,monospace" font-size="11.00">CalculateSubTotal</text>
</g>
<!-- \\App\\Http\\DTO\\Layers\\CalculateSubTotal&#45;&gt;\\App\\Http\\DTO\\Layers\\LayerInterface -->
<g id="edge7" class="edge">
<title>\\App\\Http\\DTO\\Layers\\CalculateSubTotal&#45;&gt;\\App\\Http\\DTO\\Layers\\LayerInterface</title>
<path fill="none" stroke="black" stroke-dasharray="1,5" d="M445.29,-990C382.97,-990 289.15,-990 226.81,-990"/>
<polygon fill="none" stroke="black" points="226.71,-986.5 216.71,-990 226.71,-993.5 226.71,-986.5"/>
</g>
<!-- \\App\\Http\\DTO\\Layers\\DiscountApplier -->
<g id="node3" class="node">
<title>\\App\\Http\\DTO\\Layers\\DiscountApplier</title>
<polygon fill="none" stroke="black" points="569.87,-954 451.87,-954 451.87,-918 569.87,-918 569.87,-954"/>
<text text-anchor="middle" x="510.87" y="-933.2" font-family="Courier,monospace" font-size="11.00">DiscountApplier</text>
</g>
<!-- \\App\\Http\\DTO\\Layers\\DiscountApplier&#45;&gt;\\App\\Http\\DTO\\Layers\\LayerInterface -->
<g id="edge9" class="edge">
<title>\\App\\Http\\DTO\\Layers\\DiscountApplier&#45;&gt;\\App\\Http\\DTO\\Layers\\LayerInterface</title>
<path fill="none" stroke="black" stroke-dasharray="1,5" d="M451.68,-945.04C389.56,-954.69 291.4,-969.93 226.89,-979.95"/>
<polygon fill="none" stroke="black" points="226.19,-976.52 216.84,-981.51 227.26,-983.44 226.19,-976.52"/>
</g>
<!-- \\App\\Http\\DTO\\Builder\\SaleDataBuilder -->
<g id="node5" class="node">
<title>\\App\\Http\\DTO\\Builder\\SaleDataBuilder</title>
<polygon fill="none" stroke="black" points="569.87,-874 451.87,-874 451.87,-838 569.87,-838 569.87,-874"/>
<text text-anchor="middle" x="510.87" y="-853.2" font-family="Courier,monospace" font-size="11.00">SaleDataBuilder</text>
</g>
<!-- \\App\\Http\\DTO\\SaleData -->
<g id="node6" class="node">
<title>\\App\\Http\\DTO\\SaleData</title>
<polygon fill="none" stroke="black" points="546.37,-820 475.37,-820 475.37,-784 546.37,-784 546.37,-820"/>
<text text-anchor="middle" x="510.87" y="-799.2" font-family="Courier,monospace" font-size="11.00">SaleData</text>
</g>
<!-- \\App\\Http\\Document\\Product -->
<g id="node7" class="node">
<title>\\App\\Http\\Document\\Product</title>
<polygon fill="none" stroke="black" points="542.87,-740 478.87,-740 478.87,-704 542.87,-704 542.87,-740"/>
<text text-anchor="middle" x="510.87" y="-719.2" font-family="Courier,monospace" font-size="11.00">Product</text>
</g>
<!-- \\App\\Http\\Document\\Discount -->
<g id="node8" class="node">
<title>\\App\\Http\\Document\\Discount</title>
<polygon fill="none" stroke="black" points="546.37,-686 475.37,-686 475.37,-650 546.37,-650 546.37,-686"/>
<text text-anchor="middle" x="510.87" y="-665.2" font-family="Courier,monospace" font-size="11.00">Discount</text>
</g>
<!-- \\App\\Http\\Services\\Validations\\NamesMap\\Value -->
<g id="node9" class="node">
<title>\\App\\Http\\Services\\Validations\\NamesMap\\Value</title>
<polygon fill="none" stroke="black" points="537.87,-550 483.87,-550 483.87,-514 537.87,-514 537.87,-550"/>
<text text-anchor="middle" x="510.87" y="-529.2" font-family="Courier,monospace" font-size="11.00">Value</text>
</g>
<!-- \\App\\Http\\Services\\Validations\\DiscountForNewUsers -->
<g id="node10" class="node">
<title>\\App\\Http\\Services\\Validations\\DiscountForNewUsers</title>
<polygon fill="none" stroke="black" points="583.37,-496 438.37,-496 438.37,-460 583.37,-460 583.37,-496"/>
<text text-anchor="middle" x="510.87" y="-475.2" font-family="Courier,monospace" font-size="11.00">DiscountForNewUsers</text>
</g>
<!-- \\App\\Http\\Services\\Validations\\DiscountValidationInterface -->
<g id="node15" class="node">
<title>\\App\\Http\\Services\\Validations\\DiscountValidationInterface</title>
<polygon fill="none" stroke="black" points="260.69,-388 61.69,-388 61.69,-352 260.69,-352 260.69,-388"/>
<text text-anchor="middle" x="161.19" y="-367.2" font-family="Courier,monospace" font-size="11.00">DiscountValidationInterface</text>
</g>
<!-- \\App\\Http\\Services\\Validations\\DiscountForNewUsers&#45;&gt;\\App\\Http\\Services\\Validations\\DiscountValidationInterface -->
<g id="edge1" class="edge">
<title>\\App\\Http\\Services\\Validations\\DiscountForNewUsers&#45;&gt;\\App\\Http\\Services\\Validations\\DiscountValidationInterface</title>
<path fill="none" stroke="black" stroke-dasharray="1,5" d="M438.09,-462.47C423.55,-458.97 408.41,-455.08 394.37,-451 333.7,-433.38 265.59,-409.07 218.92,-391.68"/>
<polygon fill="none" stroke="black" points="219.88,-388.31 209.29,-388.09 217.43,-394.87 219.88,-388.31"/>
</g>
<!-- \\App\\Http\\Services\\Validations\\DiscountByQuantityOfSameItem -->
<g id="node11" class="node">
<title>\\App\\Http\\Services\\Validations\\DiscountByQuantityOfSameItem</title>
<polygon fill="none" stroke="black" points="613.87,-442 407.87,-442 407.87,-406 613.87,-406 613.87,-442"/>
<text text-anchor="middle" x="510.87" y="-421.2" font-family="Courier,monospace" font-size="11.00">DiscountByQuantityOfSameItem</text>
</g>
<!-- \\App\\Http\\Services\\Validations\\DiscountByQuantityOfSameItem&#45;&gt;\\App\\Http\\Services\\Validations\\DiscountValidationInterface -->
<g id="edge2" class="edge">
<title>\\App\\Http\\Services\\Validations\\DiscountByQuantityOfSameItem&#45;&gt;\\App\\Http\\Services\\Validations\\DiscountValidationInterface</title>
<path fill="none" stroke="black" stroke-dasharray="1,5" d="M407.43,-408.09C364.51,-401.42 314.55,-393.66 270.97,-386.89"/>
<polygon fill="none" stroke="black" points="271.32,-383.41 260.9,-385.33 270.25,-390.33 271.32,-383.41"/>
</g>
<!-- \\App\\Http\\Services\\Validations\\DiscountForBeingEmployee -->
<g id="node12" class="node">
<title>\\App\\Http\\Services\\Validations\\DiscountForBeingEmployee</title>
<polygon fill="none" stroke="black" points="600.37,-388 421.37,-388 421.37,-352 600.37,-352 600.37,-388"/>
<text text-anchor="middle" x="510.87" y="-367.2" font-family="Courier,monospace" font-size="11.00">DiscountForBeingEmployee</text>
</g>
<!-- \\App\\Http\\Services\\Validations\\DiscountForBeingEmployee&#45;&gt;\\App\\Http\\Services\\Validations\\DiscountValidationInterface -->
<g id="edge4" class="edge">
<title>\\App\\Http\\Services\\Validations\\DiscountForBeingEmployee&#45;&gt;\\App\\Http\\Services\\Validations\\DiscountValidationInterface</title>
<path fill="none" stroke="black" stroke-dasharray="1,5" d="M421.24,-370C375.5,-370 319.31,-370 270.96,-370"/>
<polygon fill="none" stroke="black" points="270.77,-366.5 260.77,-370 270.77,-373.5 270.77,-366.5"/>
</g>
<!-- \\App\\Http\\Services\\Validations\\DiscountByTotalValue -->
<g id="node13" class="node">
<title>\\App\\Http\\Services\\Validations\\DiscountByTotalValue</title>
<polygon fill="none" stroke="black" points="586.87,-334 434.87,-334 434.87,-298 586.87,-298 586.87,-334"/>
<text text-anchor="middle" x="510.87" y="-313.2" font-family="Courier,monospace" font-size="11.00">DiscountByTotalValue</text>
</g>
<!-- \\App\\Http\\Services\\Validations\\DiscountByTotalValue&#45;&gt;\\App\\Http\\Services\\Validations\\DiscountValidationInterface -->
<g id="edge5" class="edge">
<title>\\App\\Http\\Services\\Validations\\DiscountByTotalValue&#45;&gt;\\App\\Http\\Services\\Validations\\DiscountValidationInterface</title>
<path fill="none" stroke="black" stroke-dasharray="1,5" d="M434.86,-327.65C387.03,-335.08 324.27,-344.83 271.01,-353.1"/>
<polygon fill="none" stroke="black" points="270.19,-349.68 260.84,-354.68 271.26,-356.6 270.19,-349.68"/>
</g>
<!-- \\App\\Http\\Services\\Validations\\DiscountByQuantityOfSameCategory -->
<g id="node14" class="node">
<title>\\App\\Http\\Services\\Validations\\DiscountByQuantityOfSameCategory</title>
<polygon fill="none" stroke="black" points="627.37,-280 394.37,-280 394.37,-244 627.37,-244 627.37,-280"/>
<text text-anchor="middle" x="510.87" y="-259.2" font-family="Courier,monospace" font-size="11.00">DiscountByQuantityOfSameCategory</text>
</g>
<!-- \\App\\Http\\Services\\Validations\\DiscountByQuantityOfSameCategory&#45;&gt;\\App\\Http\\Services\\Validations\\DiscountValidationInterface -->
<g id="edge6" class="edge">
<title>\\App\\Http\\Services\\Validations\\DiscountByQuantityOfSameCategory&#45;&gt;\\App\\Http\\Services\\Validations\\DiscountValidationInterface</title>
<path fill="none" stroke="black" stroke-dasharray="1,5" d="M427.88,-280.03C416.57,-282.85 405.15,-285.87 394.37,-289 333.7,-306.62 265.59,-330.93 218.92,-348.32"/>
<polygon fill="none" stroke="black" points="217.43,-345.13 209.29,-351.91 219.88,-351.69 217.43,-345.13"/>
</g>
<!-- \\App\\Http\\Services\\helpers\\RequestDispatcher -->
<g id="node16" class="node">
<title>\\App\\Http\\Services\\helpers\\RequestDispatcher</title>
<polygon fill="none" stroke="black" points="576.37,-200 445.37,-200 445.37,-164 576.37,-164 576.37,-200"/>
<text text-anchor="middle" x="510.87" y="-179.2" font-family="Courier,monospace" font-size="11.00">RequestDispatcher</text>
</g>
<!-- \\App\\Http\\Controllers\\CartsController -->
<g id="node17" class="node">
<title>\\App\\Http\\Controllers\\CartsController</title>
<polygon fill="none" stroke="black" points="569.87,-112 451.87,-112 451.87,-76 569.87,-76 569.87,-112"/>
<text text-anchor="middle" x="510.87" y="-91.2" font-family="Courier,monospace" font-size="11.00">CartsController</text>
</g>
<!-- \\App\\Http\\Controllers\\Controller -->
<g id="node18" class="node">
<title>\\App\\Http\\Controllers\\Controller</title>
<ellipse fill="none" stroke="black" cx="161.19" cy="-18" rx="161.37" ry="18"/>
<text text-anchor="middle" x="161.19" y="-14.3" font-family="Times,serif" font-size="14.00" fill="gray">\App\Http\Controllers\Controller</text>
</g>
<!-- \\App\\Http\\Controllers\\CartsController&#45;&gt;\\App\\Http\\Controllers\\Controller -->
<g id="edge8" class="edge">
<title>\\App\\Http\\Controllers\\CartsController&#45;&gt;\\App\\Http\\Controllers\\Controller</title>
<path fill="none" stroke="black" d="M451.68,-81.28C395.25,-68.95 309.08,-50.11 245.41,-36.19"/>
<polygon fill="none" stroke="black" points="245.91,-32.72 235.39,-34 244.41,-39.56 245.91,-32.72"/>
</g>
</g>
</svg>
