<?xml version="1.0" encoding="UTF-8" standalone="no"?>
<!DOCTYPE svg PUBLIC "-//W3C//DTD SVG 1.1//EN"
 "http://www.w3.org/Graphics/SVG/1.1/DTD/svg11.dtd">
<!-- Generated by graphviz version 2.43.0 (0)
 -->
<!-- Title: G Pages: 1 -->
<svg width="941pt" height="1272pt"
 viewBox="0.00 0.00 941.37 1272.00" xmlns="http://www.w3.org/2000/svg" xmlns:xlink="http://www.w3.org/1999/xlink">
<g id="graph0" class="graph" transform="scale(1 1) rotate(0) translate(4 1268)">
<title>G</title>
<polygon fill="white" stroke="transparent" points="-4,4 -4,-1268 937.37,-1268 937.37,4 -4,4"/>
<g id="clust1" class="cluster">
<title>cluster_Global</title>
<path fill="none" stroke="gray" d="M20,-98C20,-98 913.37,-98 913.37,-98 919.37,-98 925.37,-104 925.37,-110 925.37,-110 925.37,-1244 925.37,-1244 925.37,-1250 919.37,-1256 913.37,-1256 913.37,-1256 20,-1256 20,-1256 14,-1256 8,-1250 8,-1244 8,-1244 8,-110 8,-110 8,-104 14,-98 20,-98"/>
<text text-anchor="middle" x="466.69" y="-1243.2" font-family="Times,serif" font-size="11.00" fill="gray">Global</text>
</g>
<g id="clust2" class="cluster">
<title>cluster_\App</title>
<path fill="none" stroke="gray" d="M28,-106C28,-106 905.37,-106 905.37,-106 911.37,-106 917.37,-112 917.37,-118 917.37,-118 917.37,-1216 917.37,-1216 917.37,-1222 911.37,-1228 905.37,-1228 905.37,-1228 28,-1228 28,-1228 22,-1228 16,-1222 16,-1216 16,-1216 16,-118 16,-118 16,-112 22,-106 28,-106"/>
<text text-anchor="middle" x="466.69" y="-1215.2" font-family="Times,serif" font-size="11.00" fill="gray">App</text>
</g>
<g id="clust3" class="cluster">
<title>cluster_\App\Http</title>
<path fill="none" stroke="gray" d="M36,-114C36,-114 897.37,-114 897.37,-114 903.37,-114 909.37,-120 909.37,-126 909.37,-126 909.37,-1188 909.37,-1188 909.37,-1194 903.37,-1200 897.37,-1200 897.37,-1200 36,-1200 36,-1200 30,-1200 24,-1194 24,-1188 24,-1188 24,-126 24,-126 24,-120 30,-114 36,-114"/>
<text text-anchor="middle" x="466.69" y="-1187.2" font-family="Times,serif" font-size="11.00" fill="gray">Http</text>
</g>
<g id="clust4" class="cluster">
<title>cluster_\App\Http\DTO</title>
<path fill="none" stroke="gray" d="M44,-830C44,-830 848.87,-830 848.87,-830 854.87,-830 860.87,-836 860.87,-842 860.87,-842 860.87,-1160 860.87,-1160 860.87,-1166 854.87,-1172 848.87,-1172 848.87,-1172 44,-1172 44,-1172 38,-1172 32,-1166 32,-1160 32,-1160 32,-842 32,-842 32,-836 38,-830 44,-830"/>
<text text-anchor="middle" x="446.44" y="-1159.2" font-family="Times,serif" font-size="11.00" fill="gray">DTO</text>
</g>
<g id="clust5" class="cluster">
<title>cluster_\App\Http\DTO\Mapping</title>
<path fill="none" stroke="gray" d="M52,-838C52,-838 484.19,-838 484.19,-838 490.19,-838 496.19,-844 496.19,-850 496.19,-850 496.19,-898 496.19,-898 496.19,-904 490.19,-910 484.19,-910 484.19,-910 52,-910 52,-910 46,-910 40,-904 40,-898 40,-898 40,-850 40,-850 40,-844 46,-838 52,-838"/>
<text text-anchor="middle" x="268.09" y="-897.2" font-family="Times,serif" font-size="11.00" fill="gray">Mapping</text>
</g>
<g id="clust6" class="cluster">
<title>cluster_\App\Http\DTO\Layers</title>
<path fill="none" stroke="gray" d="M367.69,-964C367.69,-964 840.87,-964 840.87,-964 846.87,-964 852.87,-970 852.87,-976 852.87,-976 852.87,-1132 852.87,-1132 852.87,-1138 846.87,-1144 840.87,-1144 840.87,-1144 367.69,-1144 367.69,-1144 361.69,-1144 355.69,-1138 355.69,-1132 355.69,-1132 355.69,-976 355.69,-976 355.69,-970 361.69,-964 367.69,-964"/>
<text text-anchor="middle" x="604.28" y="-1131.2" font-family="Times,serif" font-size="11.00" fill="gray">Layers</text>
</g>
<g id="clust7" class="cluster">
<title>cluster_\App\Http\DTO\Builder</title>
<path fill="none" stroke="gray" d="M713.87,-884C713.87,-884 823.87,-884 823.87,-884 829.87,-884 835.87,-890 835.87,-896 835.87,-896 835.87,-944 835.87,-944 835.87,-950 829.87,-956 823.87,-956 823.87,-956 713.87,-956 713.87,-956 707.87,-956 701.87,-950 701.87,-944 701.87,-944 701.87,-896 701.87,-896 701.87,-890 707.87,-884 713.87,-884"/>
<text text-anchor="middle" x="768.87" y="-943.2" font-family="Times,serif" font-size="11.00" fill="gray">Builder</text>
</g>
<g id="clust8" class="cluster">
<title>cluster_\App\Http\Document</title>
<path fill="none" stroke="gray" d="M737.37,-202C737.37,-202 800.37,-202 800.37,-202 806.37,-202 812.37,-208 812.37,-214 812.37,-214 812.37,-316 812.37,-316 812.37,-322 806.37,-328 800.37,-328 800.37,-328 737.37,-328 737.37,-328 731.37,-328 725.37,-322 725.37,-316 725.37,-316 725.37,-214 725.37,-214 725.37,-208 731.37,-202 737.37,-202"/>
<text text-anchor="middle" x="768.87" y="-315.2" font-family="Times,serif" font-size="11.00" fill="gray">Document</text>
</g>
<g id="clust9" class="cluster">
<title>cluster_\App\Http\Services</title>
<path fill="none" stroke="gray" d="M315.69,-336C315.69,-336 889.37,-336 889.37,-336 895.37,-336 901.37,-342 901.37,-348 901.37,-348 901.37,-810 901.37,-810 901.37,-816 895.37,-822 889.37,-822 889.37,-822 315.69,-822 315.69,-822 309.69,-822 303.69,-816 303.69,-810 303.69,-810 303.69,-348 303.69,-348 303.69,-342 309.69,-336 315.69,-336"/>
<text text-anchor="middle" x="602.53" y="-809.2" font-family="Times,serif" font-size="11.00" fill="gray">Services</text>
</g>
<g id="clust10" class="cluster">
<title>cluster_\App\Http\Services\Validations</title>
<path fill="none" stroke="gray" d="M323.69,-424C323.69,-424 881.37,-424 881.37,-424 887.37,-424 893.37,-430 893.37,-436 893.37,-436 893.37,-782 893.37,-782 893.37,-788 887.37,-794 881.37,-794 881.37,-794 323.69,-794 323.69,-794 317.69,-794 311.69,-788 311.69,-782 311.69,-782 311.69,-436 311.69,-436 311.69,-430 317.69,-424 323.69,-424"/>
<text text-anchor="middle" x="602.53" y="-781.2" font-family="Times,serif" font-size="11.00" fill="gray">Validations</text>
</g>
<g id="clust11" class="cluster">
<title>cluster_\App\Http\Services\Validations\NamesMap</title>
<path fill="none" stroke="gray" d="M739.87,-694C739.87,-694 796.87,-694 796.87,-694 802.87,-694 808.87,-700 808.87,-706 808.87,-706 808.87,-754 808.87,-754 808.87,-760 802.87,-766 796.87,-766 796.87,-766 739.87,-766 739.87,-766 733.87,-766 727.87,-760 727.87,-754 727.87,-754 727.87,-706 727.87,-706 727.87,-700 733.87,-694 739.87,-694"/>
<text text-anchor="middle" x="768.37" y="-753.2" font-family="Times,serif" font-size="11.00" fill="gray">NamesMap</text>
</g>
<g id="clust12" class="cluster">
<title>cluster_\App\Http\Services\helpers</title>
<path fill="none" stroke="gray" d="M707.37,-344C707.37,-344 830.37,-344 830.37,-344 836.37,-344 842.37,-350 842.37,-356 842.37,-356 842.37,-404 842.37,-404 842.37,-410 836.37,-416 830.37,-416 830.37,-416 707.37,-416 707.37,-416 701.37,-416 695.37,-410 695.37,-404 695.37,-404 695.37,-356 695.37,-356 695.37,-350 701.37,-344 707.37,-344"/>
<text text-anchor="middle" x="768.87" y="-403.2" font-family="Times,serif" font-size="11.00" fill="gray">helpers</text>
</g>
<g id="clust13" class="cluster">
<title>cluster_\App\Http\Controllers</title>
<path fill="none" stroke="gray" d="M713.87,-122C713.87,-122 823.87,-122 823.87,-122 829.87,-122 835.87,-128 835.87,-134 835.87,-134 835.87,-182 835.87,-182 835.87,-188 829.87,-194 823.87,-194 823.87,-194 713.87,-194 713.87,-194 707.87,-194 701.87,-188 701.87,-182 701.87,-182 701.87,-134 701.87,-134 701.87,-128 707.87,-122 713.87,-122"/>
<text text-anchor="middle" x="768.87" y="-181.2" font-family="Times,serif" font-size="11.00" fill="gray">Controllers</text>
</g>
<!-- \\App\\Http\\DTO\\Mapping\\SaleDataParameters -->
<g id="node1" class="node">
<title>\\App\\Http\\DTO\\Mapping\\SaleDataParameters</title>
<polygon fill="none" stroke="black" points="488.19,-882 350.19,-882 350.19,-846 488.19,-846 488.19,-882"/>
<text text-anchor="start" x="385.19" y="-867.2" font-family="Courier,monospace" font-size="11.00">«abstract»</text>
<text text-anchor="start" x="358.19" y="-855.2" font-family="Courier,monospace" font-size="11.00">SaleDataParameters</text>
</g>
<!-- \\App\\Http\\DTO\\Mapping\\DiscountParameters -->
<g id="node2" class="node">
<title>\\App\\Http\\DTO\\Mapping\\DiscountParameters</title>
<polygon fill="none" stroke="black" points="186,-882 48,-882 48,-846 186,-846 186,-882"/>
<text text-anchor="start" x="83" y="-867.2" font-family="Courier,monospace" font-size="11.00">«abstract»</text>
<text text-anchor="start" x="56" y="-855.2" font-family="Courier,monospace" font-size="11.00">DiscountParameters</text>
</g>
<!-- \\App\\Http\\DTO\\Mapping\\SaleDataParameters&#45;&gt;\\App\\Http\\DTO\\Mapping\\DiscountParameters -->
<g id="edge1" class="edge">
<title>\\App\\Http\\DTO\\Mapping\\SaleDataParameters&#45;&gt;\\App\\Http\\DTO\\Mapping\\DiscountParameters</title>
<path fill="none" stroke="black" d="M350.07,-864C304.38,-864 244.07,-864 196.39,-864"/>
<polygon fill="none" stroke="black" points="196.11,-860.5 186.11,-864 196.11,-867.5 196.11,-860.5"/>
</g>
<!-- \\App\\Http\\DTO\\Layers\\DiscountVerification -->
<g id="node3" class="node">
<title>\\App\\Http\\DTO\\Layers\\DiscountVerification</title>
<polygon fill="none" stroke="black" points="844.87,-1116 692.87,-1116 692.87,-1080 844.87,-1080 844.87,-1116"/>
<text text-anchor="middle" x="768.87" y="-1095.2" font-family="Courier,monospace" font-size="11.00">DiscountVerification</text>
</g>
<!-- \\App\\Http\\DTO\\Layers\\LayerInterface -->
<g id="node6" class="node">
<title>\\App\\Http\\DTO\\Layers\\LayerInterface</title>
<polygon fill="none" stroke="black" points="474.69,-1062 363.69,-1062 363.69,-1026 474.69,-1026 474.69,-1062"/>
<text text-anchor="middle" x="419.19" y="-1041.2" font-family="Courier,monospace" font-size="11.00">LayerInterface</text>
</g>
<!-- \\App\\Http\\DTO\\Layers\\DiscountVerification&#45;&gt;\\App\\Http\\DTO\\Layers\\LayerInterface -->
<g id="edge5" class="edge">
<title>\\App\\Http\\DTO\\Layers\\DiscountVerification&#45;&gt;\\App\\Http\\DTO\\Layers\\LayerInterface</title>
<path fill="none" stroke="black" stroke-dasharray="1,5" d="M692.86,-1086.35C630.87,-1076.72 543.77,-1063.19 484.82,-1054.04"/>
<polygon fill="none" stroke="black" points="485.3,-1050.57 474.88,-1052.5 484.23,-1057.49 485.3,-1050.57"/>
</g>
<!-- \\App\\Http\\DTO\\Layers\\CalculateSubTotal -->
<g id="node4" class="node">
<title>\\App\\Http\\DTO\\Layers\\CalculateSubTotal</title>
<polygon fill="none" stroke="black" points="834.37,-1062 703.37,-1062 703.37,-1026 834.37,-1026 834.37,-1062"/>
<text text-anchor="middle" x="768.87" y="-1041.2" font-family="Courier,monospace" font-size="11.00">CalculateSubTotal</text>
</g>
<!-- \\App\\Http\\DTO\\Layers\\CalculateSubTotal&#45;&gt;\\App\\Http\\DTO\\Layers\\LayerInterface -->
<g id="edge9" class="edge">
<title>\\App\\Http\\DTO\\Layers\\CalculateSubTotal&#45;&gt;\\App\\Http\\DTO\\Layers\\LayerInterface</title>
<path fill="none" stroke="black" stroke-dasharray="1,5" d="M703.29,-1044C640.97,-1044 547.15,-1044 484.81,-1044"/>
<polygon fill="none" stroke="black" points="484.71,-1040.5 474.71,-1044 484.71,-1047.5 484.71,-1040.5"/>
</g>
<!-- \\App\\Http\\DTO\\Layers\\DiscountApplier -->
<g id="node5" class="node">
<title>\\App\\Http\\DTO\\Layers\\DiscountApplier</title>
<polygon fill="none" stroke="black" points="827.87,-1008 709.87,-1008 709.87,-972 827.87,-972 827.87,-1008"/>
<text text-anchor="middle" x="768.87" y="-987.2" font-family="Courier,monospace" font-size="11.00">DiscountApplier</text>
</g>
<!-- \\App\\Http\\DTO\\Layers\\DiscountApplier&#45;&gt;\\App\\Http\\DTO\\Layers\\LayerInterface -->
<g id="edge14" class="edge">
<title>\\App\\Http\\DTO\\Layers\\DiscountApplier&#45;&gt;\\App\\Http\\DTO\\Layers\\LayerInterface</title>
<path fill="none" stroke="black" stroke-dasharray="1,5" d="M709.68,-999.04C647.56,-1008.69 549.4,-1023.93 484.89,-1033.95"/>
<polygon fill="none" stroke="black" points="484.19,-1030.52 474.84,-1035.51 485.26,-1037.44 484.19,-1030.52"/>
</g>
<!-- \\App\\Http\\DTO\\Builder\\SaleDataBuilder -->
<g id="node7" class="node">
<title>\\App\\Http\\DTO\\Builder\\SaleDataBuilder</title>
<polygon fill="none" stroke="black" points="827.87,-928 709.87,-928 709.87,-892 827.87,-892 827.87,-928"/>
<text text-anchor="middle" x="768.87" y="-907.2" font-family="Courier,monospace" font-size="11.00">SaleDataBuilder</text>
</g>
<!-- \\App\\Http\\DTO\\SaleData -->
<g id="node8" class="node">
<title>\\App\\Http\\DTO\\SaleData</title>
<polygon fill="none" stroke="black" points="804.37,-874 733.37,-874 733.37,-838 804.37,-838 804.37,-874"/>
<text text-anchor="middle" x="768.87" y="-853.2" font-family="Courier,monospace" font-size="11.00">SaleData</text>
</g>
<!-- \\App\\Http\\DTO\\SaleData&#45;&gt;\\App\\Http\\DTO\\Mapping\\SaleDataParameters -->
<g id="edge10" class="edge">
<title>\\App\\Http\\DTO\\SaleData&#45;&gt;\\App\\Http\\DTO\\Mapping\\SaleDataParameters</title>
<path fill="none" stroke="black" d="M733.26,-856.8C678.88,-858.05 572.04,-860.51 498.41,-862.2"/>
<polygon fill="none" stroke="black" points="498.17,-858.7 488.25,-862.43 498.33,-865.7 498.17,-858.7"/>
</g>
<!-- \\JsonSerializable -->
<g id="node20" class="node">
<title>\\JsonSerializable</title>
<ellipse fill="none" stroke="black" cx="419.19" cy="-72" rx="87.99" ry="18"/>
<text text-anchor="middle" x="419.19" y="-68.3" font-family="Times,serif" font-size="14.00" fill="gray">\JsonSerializable</text>
</g>
<!-- \\App\\Http\\DTO\\SaleData&#45;&gt;\\JsonSerializable -->
<g id="edge11" class="edge">
<title>\\App\\Http\\DTO\\SaleData&#45;&gt;\\JsonSerializable</title>
<path fill="none" stroke="black" stroke-dasharray="1,5" d="M733.35,-839.22C707.02,-824.6 672.04,-800.9 652.37,-770 567.1,-636.02 629.9,-570.89 580.37,-420 539.41,-295.19 466.31,-155.83 435.04,-98.66"/>
<polygon fill="none" stroke="black" points="438.1,-96.96 430.22,-89.89 431.97,-100.34 438.1,-96.96"/>
</g>
<!-- \\App\\Http\\Document\\Product -->
<g id="node9" class="node">
<title>\\App\\Http\\Document\\Product</title>
<polygon fill="none" stroke="black" points="800.87,-300 736.87,-300 736.87,-264 800.87,-264 800.87,-300"/>
<text text-anchor="middle" x="768.87" y="-279.2" font-family="Courier,monospace" font-size="11.00">Product</text>
</g>
<!-- \\App\\Http\\Document\\Product&#45;&gt;\\JsonSerializable -->
<g id="edge2" class="edge">
<title>\\App\\Http\\Document\\Product&#45;&gt;\\JsonSerializable</title>
<path fill="none" stroke="black" stroke-dasharray="1,5" d="M736.73,-278.48C712.76,-274.89 679.28,-267.95 652.37,-255 566.96,-213.89 483.94,-136.85 444.32,-97.12"/>
<polygon fill="none" stroke="black" points="446.5,-94.35 436.98,-89.69 441.52,-99.27 446.5,-94.35"/>
</g>
<!-- \\App\\Http\\Document\\Discount -->
<g id="node10" class="node">
<title>\\App\\Http\\Document\\Discount</title>
<polygon fill="none" stroke="black" points="804.37,-246 733.37,-246 733.37,-210 804.37,-210 804.37,-246"/>
<text text-anchor="middle" x="768.87" y="-225.2" font-family="Courier,monospace" font-size="11.00">Discount</text>
</g>
<!-- \\App\\Http\\Document\\Discount&#45;&gt;\\JsonSerializable -->
<g id="edge13" class="edge">
<title>\\App\\Http\\Document\\Discount&#45;&gt;\\JsonSerializable</title>
<path fill="none" stroke="black" stroke-dasharray="1,5" d="M733.32,-221.33C710,-216.27 678.78,-208.41 652.37,-198 579.13,-169.11 499.7,-122.31 455.33,-94.61"/>
<polygon fill="none" stroke="black" points="457,-91.52 446.67,-89.16 453.27,-97.45 457,-91.52"/>
</g>
<!-- \\App\\Http\\Services\\Validations\\NamesMap\\Value -->
<g id="node11" class="node">
<title>\\App\\Http\\Services\\Validations\\NamesMap\\Value</title>
<polygon fill="none" stroke="black" points="795.87,-738 741.87,-738 741.87,-702 795.87,-702 795.87,-738"/>
<text text-anchor="middle" x="768.87" y="-717.2" font-family="Courier,monospace" font-size="11.00">Value</text>
</g>
<!-- \\App\\Http\\Services\\Validations\\DiscountForNewUsers -->
<g id="node12" class="node">
<title>\\App\\Http\\Services\\Validations\\DiscountForNewUsers</title>
<polygon fill="none" stroke="black" points="841.37,-576 696.37,-576 696.37,-540 841.37,-540 841.37,-576"/>
<text text-anchor="middle" x="768.87" y="-555.2" font-family="Courier,monospace" font-size="11.00">DiscountForNewUsers</text>
</g>
<!-- \\App\\Http\\Services\\Validations\\DiscountValidationInterface -->
<g id="node17" class="node">
<title>\\App\\Http\\Services\\Validations\\DiscountValidationInterface</title>
<polygon fill="none" stroke="black" points="518.69,-576 319.69,-576 319.69,-540 518.69,-540 518.69,-576"/>
<text text-anchor="middle" x="419.19" y="-555.2" font-family="Courier,monospace" font-size="11.00">DiscountValidationInterface</text>
</g>
<!-- \\App\\Http\\Services\\Validations\\DiscountForNewUsers&#45;&gt;\\App\\Http\\Services\\Validations\\DiscountValidationInterface -->
<g id="edge3" class="edge">
<title>\\App\\Http\\Services\\Validations\\DiscountForNewUsers&#45;&gt;\\App\\Http\\Services\\Validations\\DiscountValidationInterface</title>
<path fill="none" stroke="black" stroke-dasharray="1,5" d="M696.25,-558C647.97,-558 583.37,-558 528.8,-558"/>
<polygon fill="none" stroke="black" points="528.73,-554.5 518.73,-558 528.73,-561.5 528.73,-554.5"/>
</g>
<!-- \\App\\Http\\Services\\Validations\\DiscountByQuantityOfSameItem -->
<g id="node13" class="node">
<title>\\App\\Http\\Services\\Validations\\DiscountByQuantityOfSameItem</title>
<polygon fill="none" stroke="black" points="871.87,-522 665.87,-522 665.87,-486 871.87,-486 871.87,-522"/>
<text text-anchor="middle" x="768.87" y="-501.2" font-family="Courier,monospace" font-size="11.00">DiscountByQuantityOfSameItem</text>
</g>
<!-- \\App\\Http\\Services\\Validations\\DiscountByQuantityOfSameItem&#45;&gt;\\App\\Http\\Services\\Validations\\DiscountValidationInterface -->
<g id="edge4" class="edge">
<title>\\App\\Http\\Services\\Validations\\DiscountByQuantityOfSameItem&#45;&gt;\\App\\Http\\Services\\Validations\\DiscountValidationInterface</title>
<path fill="none" stroke="black" stroke-dasharray="1,5" d="M665.43,-519.91C622.51,-526.58 572.55,-534.34 528.97,-541.11"/>
<polygon fill="none" stroke="black" points="528.25,-537.67 518.9,-542.67 529.32,-544.59 528.25,-537.67"/>
</g>
<!-- \\App\\Http\\Services\\Validations\\DiscountForBeingEmployee -->
<g id="node14" class="node">
<title>\\App\\Http\\Services\\Validations\\DiscountForBeingEmployee</title>
<polygon fill="none" stroke="black" points="858.37,-468 679.37,-468 679.37,-432 858.37,-432 858.37,-468"/>
<text text-anchor="middle" x="768.87" y="-447.2" font-family="Courier,monospace" font-size="11.00">DiscountForBeingEmployee</text>
</g>
<!-- \\App\\Http\\Services\\Validations\\DiscountForBeingEmployee&#45;&gt;\\App\\Http\\Services\\Validations\\DiscountValidationInterface -->
<g id="edge6" class="edge">
<title>\\App\\Http\\Services\\Validations\\DiscountForBeingEmployee&#45;&gt;\\App\\Http\\Services\\Validations\\DiscountValidationInterface</title>
<path fill="none" stroke="black" stroke-dasharray="1,5" d="M685.88,-468.03C674.57,-470.85 663.15,-473.87 652.37,-477 591.7,-494.62 523.59,-518.93 476.92,-536.32"/>
<polygon fill="none" stroke="black" points="475.43,-533.13 467.29,-539.91 477.88,-539.69 475.43,-533.13"/>
</g>
<!-- \\App\\Http\\Services\\Validations\\DiscountByTotalValue -->
<g id="node15" class="node">
<title>\\App\\Http\\Services\\Validations\\DiscountByTotalValue</title>
<polygon fill="none" stroke="black" points="844.87,-684 692.87,-684 692.87,-648 844.87,-648 844.87,-684"/>
<text text-anchor="middle" x="768.87" y="-663.2" font-family="Courier,monospace" font-size="11.00">DiscountByTotalValue</text>
</g>
<!-- \\App\\Http\\Services\\Validations\\DiscountByTotalValue&#45;&gt;\\App\\Http\\Services\\Validations\\DiscountValidationInterface -->
<g id="edge7" class="edge">
<title>\\App\\Http\\Services\\Validations\\DiscountByTotalValue&#45;&gt;\\App\\Http\\Services\\Validations\\DiscountValidationInterface</title>
<path fill="none" stroke="black" stroke-dasharray="1,5" d="M692.7,-649.65C679.21,-646.37 665.32,-642.76 652.37,-639 591.7,-621.38 523.59,-597.07 476.92,-579.68"/>
<polygon fill="none" stroke="black" points="477.88,-576.31 467.29,-576.09 475.43,-582.87 477.88,-576.31"/>
</g>
<!-- \\App\\Http\\Services\\Validations\\DiscountByQuantityOfSameCategory -->
<g id="node16" class="node">
<title>\\App\\Http\\Services\\Validations\\DiscountByQuantityOfSameCategory</title>
<polygon fill="none" stroke="black" points="885.37,-630 652.37,-630 652.37,-594 885.37,-594 885.37,-630"/>
<text text-anchor="middle" x="768.87" y="-609.2" font-family="Courier,monospace" font-size="11.00">DiscountByQuantityOfSameCategory</text>
</g>
<!-- \\App\\Http\\Services\\Validations\\DiscountByQuantityOfSameCategory&#45;&gt;\\App\\Http\\Services\\Validations\\DiscountValidationInterface -->
<g id="edge8" class="edge">
<title>\\App\\Http\\Services\\Validations\\DiscountByQuantityOfSameCategory&#45;&gt;\\App\\Http\\Services\\Validations\\DiscountValidationInterface</title>
<path fill="none" stroke="black" stroke-dasharray="1,5" d="M652.1,-594.02C612.47,-587.86 568.31,-581 529.23,-574.94"/>
<polygon fill="none" stroke="black" points="529.31,-571.41 518.89,-573.33 528.23,-578.32 529.31,-571.41"/>
</g>
<!-- \\App\\Http\\Services\\helpers\\RequestDispatcher -->
<g id="node18" class="node">
<title>\\App\\Http\\Services\\helpers\\RequestDispatcher</title>
<polygon fill="none" stroke="black" points="834.37,-388 703.37,-388 703.37,-352 834.37,-352 834.37,-388"/>
<text text-anchor="middle" x="768.87" y="-367.2" font-family="Courier,monospace" font-size="11.00">RequestDispatcher</text>
</g>
<!-- \\App\\Http\\Controllers\\CartsController -->
<g id="node19" class="node">
<title>\\App\\Http\\Controllers\\CartsController</title>
<polygon fill="none" stroke="black" points="827.87,-166 709.87,-166 709.87,-130 827.87,-130 827.87,-166"/>
<text text-anchor="middle" x="768.87" y="-145.2" font-family="Courier,monospace" font-size="11.00">CartsController</text>
</g>
<!-- \\App\\Http\\Controllers\\Controller -->
<g id="node21" class="node">
<title>\\App\\Http\\Controllers\\Controller</title>
<ellipse fill="none" stroke="black" cx="419.19" cy="-18" rx="161.37" ry="18"/>
<text text-anchor="middle" x="419.19" y="-14.3" font-family="Times,serif" font-size="14.00" fill="gray">\App\Http\Controllers\Controller</text>
</g>
<!-- \\App\\Http\\Controllers\\CartsController&#45;&gt;\\App\\Http\\Controllers\\Controller -->
<g id="edge12" class="edge">
<title>\\App\\Http\\Controllers\\CartsController&#45;&gt;\\App\\Http\\Controllers\\Controller</title>
<path fill="none" stroke="black" d="M741.57,-129.8C706.47,-106.41 641.59,-66.29 580.37,-45 567.06,-40.37 552.84,-36.52 538.58,-33.32"/>
<polygon fill="none" stroke="black" points="539.22,-29.88 528.71,-31.21 537.76,-36.72 539.22,-29.88"/>
</g>
</g>
</svg>
