<?xml version="1.0" encoding="UTF-8" standalone="no"?>
<!DOCTYPE svg PUBLIC "-//W3C//DTD SVG 1.1//EN"
 "http://www.w3.org/Graphics/SVG/1.1/DTD/svg11.dtd">
<!-- Generated by graphviz version 2.43.0 (0)
 -->
<!-- Title: G Pages: 1 -->
<svg width="907pt" height="1138pt"
 viewBox="0.00 0.00 906.57 1138.00" xmlns="http://www.w3.org/2000/svg" xmlns:xlink="http://www.w3.org/1999/xlink">
<g id="graph0" class="graph" transform="scale(1 1) rotate(0) translate(4 1134)">
<title>G</title>
<polygon fill="white" stroke="transparent" points="-4,4 -4,-1134 902.57,-1134 902.57,4 -4,4"/>
<g id="clust1" class="cluster">
<title>cluster_Global</title>
<path fill="none" stroke="gray" d="M345.57,-44C345.57,-44 878.57,-44 878.57,-44 884.57,-44 890.57,-50 890.57,-56 890.57,-56 890.57,-1110 890.57,-1110 890.57,-1116 884.57,-1122 878.57,-1122 878.57,-1122 345.57,-1122 345.57,-1122 339.57,-1122 333.57,-1116 333.57,-1110 333.57,-1110 333.57,-56 333.57,-56 333.57,-50 339.57,-44 345.57,-44"/>
<text text-anchor="middle" x="612.07" y="-1109.2" font-family="Times,serif" font-size="11.00" fill="gray">Global</text>
</g>
<g id="clust2" class="cluster">
<title>cluster_\App</title>
<path fill="none" stroke="gray" d="M353.57,-52C353.57,-52 870.57,-52 870.57,-52 876.57,-52 882.57,-58 882.57,-64 882.57,-64 882.57,-1082 882.57,-1082 882.57,-1088 876.57,-1094 870.57,-1094 870.57,-1094 353.57,-1094 353.57,-1094 347.57,-1094 341.57,-1088 341.57,-1082 341.57,-1082 341.57,-64 341.57,-64 341.57,-58 347.57,-52 353.57,-52"/>
<text text-anchor="middle" x="612.07" y="-1081.2" font-family="Times,serif" font-size="11.00" fill="gray">App</text>
</g>
<g id="clust3" class="cluster">
<title>cluster_\App\Http</title>
<path fill="none" stroke="gray" d="M361.57,-60C361.57,-60 862.57,-60 862.57,-60 868.57,-60 874.57,-66 874.57,-72 874.57,-72 874.57,-1054 874.57,-1054 874.57,-1060 868.57,-1066 862.57,-1066 862.57,-1066 361.57,-1066 361.57,-1066 355.57,-1066 349.57,-1060 349.57,-1054 349.57,-1054 349.57,-72 349.57,-72 349.57,-66 355.57,-60 361.57,-60"/>
<text text-anchor="middle" x="612.07" y="-1053.2" font-family="Times,serif" font-size="11.00" fill="gray">Http</text>
</g>
<g id="clust4" class="cluster">
<title>cluster_\App\Http\DTO</title>
<path fill="none" stroke="gray" d="M408.07,-696C408.07,-696 827.57,-696 827.57,-696 833.57,-696 839.57,-702 839.57,-708 839.57,-708 839.57,-1026 839.57,-1026 839.57,-1032 833.57,-1038 827.57,-1038 827.57,-1038 408.07,-1038 408.07,-1038 402.07,-1038 396.07,-1032 396.07,-1026 396.07,-1026 396.07,-708 396.07,-708 396.07,-702 402.07,-696 408.07,-696"/>
<text text-anchor="middle" x="617.82" y="-1025.2" font-family="Times,serif" font-size="11.00" fill="gray">DTO</text>
</g>
<g id="clust5" class="cluster">
<title>cluster_\App\Http\DTO\Layers</title>
<path fill="none" stroke="gray" d="M421.57,-830C421.57,-830 819.57,-830 819.57,-830 825.57,-830 831.57,-836 831.57,-842 831.57,-842 831.57,-998 831.57,-998 831.57,-1004 825.57,-1010 819.57,-1010 819.57,-1010 421.57,-1010 421.57,-1010 415.57,-1010 409.57,-1004 409.57,-998 409.57,-998 409.57,-842 409.57,-842 409.57,-836 415.57,-830 421.57,-830"/>
<text text-anchor="middle" x="620.57" y="-997.2" font-family="Times,serif" font-size="11.00" fill="gray">Layers</text>
</g>
<g id="clust6" class="cluster">
<title>cluster_\App\Http\DTO\Builder</title>
<path fill="none" stroke="gray" d="M692.57,-750C692.57,-750 802.57,-750 802.57,-750 808.57,-750 814.57,-756 814.57,-762 814.57,-762 814.57,-810 814.57,-810 814.57,-816 808.57,-822 802.57,-822 802.57,-822 692.57,-822 692.57,-822 686.57,-822 680.57,-816 680.57,-810 680.57,-810 680.57,-762 680.57,-762 680.57,-756 686.57,-750 692.57,-750"/>
<text text-anchor="middle" x="747.57" y="-809.2" font-family="Times,serif" font-size="11.00" fill="gray">Builder</text>
</g>
<g id="clust7" class="cluster">
<title>cluster_\App\Http\Document</title>
<path fill="none" stroke="gray" d="M716.07,-68C716.07,-68 779.07,-68 779.07,-68 785.07,-68 791.07,-74 791.07,-80 791.07,-80 791.07,-182 791.07,-182 791.07,-188 785.07,-194 779.07,-194 779.07,-194 716.07,-194 716.07,-194 710.07,-194 704.07,-188 704.07,-182 704.07,-182 704.07,-80 704.07,-80 704.07,-74 710.07,-68 716.07,-68"/>
<text text-anchor="middle" x="747.57" y="-181.2" font-family="Times,serif" font-size="11.00" fill="gray">Document</text>
</g>
<g id="clust8" class="cluster">
<title>cluster_\App\Http\Services</title>
<path fill="none" stroke="gray" d="M369.57,-336C369.57,-336 854.57,-336 854.57,-336 860.57,-336 866.57,-342 866.57,-348 866.57,-348 866.57,-676 866.57,-676 866.57,-682 860.57,-688 854.57,-688 854.57,-688 369.57,-688 369.57,-688 363.57,-688 357.57,-682 357.57,-676 357.57,-676 357.57,-348 357.57,-348 357.57,-342 363.57,-336 369.57,-336"/>
<text text-anchor="middle" x="612.07" y="-675.2" font-family="Times,serif" font-size="11.00" fill="gray">Services</text>
</g>
<g id="clust9" class="cluster">
<title>cluster_\App\Http\Services\Validations</title>
<path fill="none" stroke="gray" d="M377.57,-344C377.57,-344 846.57,-344 846.57,-344 852.57,-344 858.57,-350 858.57,-356 858.57,-356 858.57,-648 858.57,-648 858.57,-654 852.57,-660 846.57,-660 846.57,-660 377.57,-660 377.57,-660 371.57,-660 365.57,-654 365.57,-648 365.57,-648 365.57,-356 365.57,-356 365.57,-350 371.57,-344 377.57,-344"/>
<text text-anchor="middle" x="612.07" y="-647.2" font-family="Times,serif" font-size="11.00" fill="gray">Validations</text>
</g>
<g id="clust10" class="cluster">
<title>cluster_\App\Http\Services\Validations\NamesMap</title>
<path fill="none" stroke="gray" d="M718.57,-560C718.57,-560 775.57,-560 775.57,-560 781.57,-560 787.57,-566 787.57,-572 787.57,-572 787.57,-620 787.57,-620 787.57,-626 781.57,-632 775.57,-632 775.57,-632 718.57,-632 718.57,-632 712.57,-632 706.57,-626 706.57,-620 706.57,-620 706.57,-572 706.57,-572 706.57,-566 712.57,-560 718.57,-560"/>
<text text-anchor="middle" x="747.07" y="-619.2" font-family="Times,serif" font-size="11.00" fill="gray">NamesMap</text>
</g>
<g id="clust11" class="cluster">
<title>cluster_\App\Http\Controllers</title>
<path fill="none" stroke="gray" d="M435.07,-202C435.07,-202 802.57,-202 802.57,-202 808.57,-202 814.57,-208 814.57,-214 814.57,-214 814.57,-316 814.57,-316 814.57,-322 808.57,-328 802.57,-328 802.57,-328 435.07,-328 435.07,-328 429.07,-328 423.07,-322 423.07,-316 423.07,-316 423.07,-214 423.07,-214 423.07,-208 429.07,-202 435.07,-202"/>
<text text-anchor="middle" x="618.82" y="-315.2" font-family="Times,serif" font-size="11.00" fill="gray">Controllers</text>
</g>
<!-- \\App\\Http\\DTO\\Layers\\DiscountVerification -->
<g id="node1" class="node">
<title>\\App\\Http\\DTO\\Layers\\DiscountVerification</title>
<polygon fill="none" stroke="black" points="823.57,-928 671.57,-928 671.57,-892 823.57,-892 823.57,-928"/>
<text text-anchor="middle" x="747.57" y="-907.2" font-family="Courier,monospace" font-size="11.00">DiscountVerification</text>
</g>
<!-- \\App\\Http\\DTO\\Layers\\LayerInterface -->
<g id="node4" class="node">
<title>\\App\\Http\\DTO\\Layers\\LayerInterface</title>
<polygon fill="none" stroke="black" points="528.57,-928 417.57,-928 417.57,-892 528.57,-892 528.57,-928"/>
<text text-anchor="middle" x="473.07" y="-907.2" font-family="Courier,monospace" font-size="11.00">LayerInterface</text>
</g>
<!-- \\App\\Http\\DTO\\Layers\\DiscountVerification&#45;&gt;\\App\\Http\\DTO\\Layers\\LayerInterface -->
<g id="edge4" class="edge">
<title>\\App\\Http\\DTO\\Layers\\DiscountVerification&#45;&gt;\\App\\Http\\DTO\\Layers\\LayerInterface</title>
<path fill="none" stroke="black" stroke-dasharray="1,5" d="M671.39,-910C629.8,-910 578.63,-910 538.83,-910"/>
<polygon fill="none" stroke="black" points="538.7,-906.5 528.7,-910 538.7,-913.5 538.7,-906.5"/>
</g>
<!-- \\App\\Http\\DTO\\Layers\\CalculateSubTotal -->
<g id="node2" class="node">
<title>\\App\\Http\\DTO\\Layers\\CalculateSubTotal</title>
<polygon fill="none" stroke="black" points="813.07,-874 682.07,-874 682.07,-838 813.07,-838 813.07,-874"/>
<text text-anchor="middle" x="747.57" y="-853.2" font-family="Courier,monospace" font-size="11.00">CalculateSubTotal</text>
</g>
<!-- \\App\\Http\\DTO\\Layers\\CalculateSubTotal&#45;&gt;\\App\\Http\\DTO\\Layers\\LayerInterface -->
<g id="edge7" class="edge">
<title>\\App\\Http\\DTO\\Layers\\CalculateSubTotal&#45;&gt;\\App\\Http\\DTO\\Layers\\LayerInterface</title>
<path fill="none" stroke="black" stroke-dasharray="1,5" d="M681.99,-868.8C638.77,-877.36 582.1,-888.59 538.84,-897.16"/>
<polygon fill="none" stroke="black" points="538.12,-893.74 528.99,-899.12 539.48,-900.61 538.12,-893.74"/>
</g>
<!-- \\App\\Http\\DTO\\Layers\\DiscountApplier -->
<g id="node3" class="node">
<title>\\App\\Http\\DTO\\Layers\\DiscountApplier</title>
<polygon fill="none" stroke="black" points="806.57,-982 688.57,-982 688.57,-946 806.57,-946 806.57,-982"/>
<text text-anchor="middle" x="747.57" y="-961.2" font-family="Courier,monospace" font-size="11.00">DiscountApplier</text>
</g>
<!-- \\App\\Http\\DTO\\Layers\\DiscountApplier&#45;&gt;\\App\\Http\\DTO\\Layers\\LayerInterface -->
<g id="edge12" class="edge">
<title>\\App\\Http\\DTO\\Layers\\DiscountApplier&#45;&gt;\\App\\Http\\DTO\\Layers\\LayerInterface</title>
<path fill="none" stroke="black" stroke-dasharray="1,5" d="M688.45,-952.48C644.56,-943.79 584.34,-931.85 538.9,-922.85"/>
<polygon fill="none" stroke="black" points="539.35,-919.37 528.86,-920.86 537.99,-926.23 539.35,-919.37"/>
</g>
<!-- \\App\\Http\\DTO\\Builder\\SaleDataBuilder -->
<g id="node5" class="node">
<title>\\App\\Http\\DTO\\Builder\\SaleDataBuilder</title>
<polygon fill="none" stroke="black" points="806.57,-794 688.57,-794 688.57,-758 806.57,-758 806.57,-794"/>
<text text-anchor="middle" x="747.57" y="-773.2" font-family="Courier,monospace" font-size="11.00">SaleDataBuilder</text>
</g>
<!-- \\App\\Http\\DTO\\SaleDataParameters -->
<g id="node6" class="node">
<title>\\App\\Http\\DTO\\SaleDataParameters</title>
<polygon fill="none" stroke="black" points="542.07,-740 404.07,-740 404.07,-704 542.07,-704 542.07,-740"/>
<text text-anchor="start" x="439.07" y="-725.2" font-family="Courier,monospace" font-size="11.00">«abstract»</text>
<text text-anchor="start" x="412.07" y="-713.2" font-family="Courier,monospace" font-size="11.00">SaleDataParameters</text>
</g>
<!-- \\App\\Http\\DTO\\SaleData -->
<g id="node7" class="node">
<title>\\App\\Http\\DTO\\SaleData</title>
<polygon fill="none" stroke="black" points="783.07,-740 712.07,-740 712.07,-704 783.07,-704 783.07,-740"/>
<text text-anchor="middle" x="747.57" y="-719.2" font-family="Courier,monospace" font-size="11.00">SaleData</text>
</g>
<!-- \\App\\Http\\DTO\\SaleData&#45;&gt;\\App\\Http\\DTO\\SaleDataParameters -->
<g id="edge8" class="edge">
<title>\\App\\Http\\DTO\\SaleData&#45;&gt;\\App\\Http\\DTO\\SaleDataParameters</title>
<path fill="none" stroke="black" d="M712.06,-722C672.1,-722 605.02,-722 552.24,-722"/>
<polygon fill="none" stroke="black" points="552.22,-718.5 542.22,-722 552.22,-725.5 552.22,-718.5"/>
</g>
<!-- \\JsonSerializable -->
<g id="node19" class="node">
<title>\\JsonSerializable</title>
<ellipse fill="none" stroke="black" cx="473.07" cy="-18" rx="87.99" ry="18"/>
<text text-anchor="middle" x="473.07" y="-14.3" font-family="Times,serif" font-size="14.00" fill="gray">\JsonSerializable</text>
</g>
<!-- \\App\\Http\\DTO\\SaleData&#45;&gt;\\JsonSerializable -->
<g id="edge9" class="edge">
<title>\\App\\Http\\DTO\\SaleData&#45;&gt;\\JsonSerializable</title>
<path fill="none" stroke="black" stroke-dasharray="1,5" d="M715.03,-703.99C691.68,-688.91 661.16,-665.2 644.57,-636 547.13,-464.47 636.84,-384.52 572.57,-198 552.55,-139.88 514.76,-78.32 492.26,-44.37"/>
<polygon fill="none" stroke="black" points="495.09,-42.31 486.61,-35.95 489.27,-46.21 495.09,-42.31"/>
</g>
<!-- \\App\\Http\\Document\\Product -->
<g id="node8" class="node">
<title>\\App\\Http\\Document\\Product</title>
<polygon fill="none" stroke="black" points="779.57,-166 715.57,-166 715.57,-130 779.57,-130 779.57,-166"/>
<text text-anchor="middle" x="747.57" y="-145.2" font-family="Courier,monospace" font-size="11.00">Product</text>
</g>
<!-- \\App\\Http\\Document\\Product&#45;&gt;\\JsonSerializable -->
<g id="edge1" class="edge">
<title>\\App\\Http\\Document\\Product&#45;&gt;\\JsonSerializable</title>
<path fill="none" stroke="black" stroke-dasharray="1,5" d="M715.47,-142.18C694.86,-137.74 667.51,-130.73 644.57,-121 593.43,-99.31 539.33,-64.28 506.13,-41.2"/>
<polygon fill="none" stroke="black" points="507.94,-38.19 497.75,-35.31 503.92,-43.92 507.94,-38.19"/>
</g>
<!-- \\App\\Http\\Document\\Discount -->
<g id="node9" class="node">
<title>\\App\\Http\\Document\\Discount</title>
<polygon fill="none" stroke="black" points="783.07,-112 712.07,-112 712.07,-76 783.07,-76 783.07,-112"/>
<text text-anchor="middle" x="747.57" y="-91.2" font-family="Courier,monospace" font-size="11.00">Discount</text>
</g>
<!-- \\App\\Http\\Document\\Discount&#45;&gt;\\JsonSerializable -->
<g id="edge11" class="edge">
<title>\\App\\Http\\Document\\Discount&#45;&gt;\\JsonSerializable</title>
<path fill="none" stroke="black" stroke-dasharray="1,5" d="M712.06,-84.37C667.84,-72.04 590.4,-50.44 535.89,-35.24"/>
<polygon fill="none" stroke="black" points="536.56,-31.79 525.99,-32.48 534.68,-38.54 536.56,-31.79"/>
</g>
<!-- \\App\\Http\\Services\\Validations\\NamesMap\\Value -->
<g id="node10" class="node">
<title>\\App\\Http\\Services\\Validations\\NamesMap\\Value</title>
<polygon fill="none" stroke="black" points="774.57,-604 720.57,-604 720.57,-568 774.57,-568 774.57,-604"/>
<text text-anchor="middle" x="747.57" y="-583.2" font-family="Courier,monospace" font-size="11.00">Value</text>
</g>
<!-- \\App\\Http\\Services\\Validations\\DiscountForNewUsers -->
<g id="node11" class="node">
<title>\\App\\Http\\Services\\Validations\\DiscountForNewUsers</title>
<polygon fill="none" stroke="black" points="820.07,-442 675.07,-442 675.07,-406 820.07,-406 820.07,-442"/>
<text text-anchor="middle" x="747.57" y="-421.2" font-family="Courier,monospace" font-size="11.00">DiscountForNewUsers</text>
</g>
<!-- \\App\\Http\\Services\\Validations\\DiscountValidationInterface -->
<g id="node15" class="node">
<title>\\App\\Http\\Services\\Validations\\DiscountValidationInterface</title>
<polygon fill="none" stroke="black" points="572.57,-469 373.57,-469 373.57,-433 572.57,-433 572.57,-469"/>
<text text-anchor="middle" x="473.07" y="-448.2" font-family="Courier,monospace" font-size="11.00">DiscountValidationInterface</text>
</g>
<!-- \\App\\Http\\Services\\Validations\\DiscountForNewUsers&#45;&gt;\\App\\Http\\Services\\Validations\\DiscountValidationInterface -->
<g id="edge2" class="edge">
<title>\\App\\Http\\Services\\Validations\\DiscountForNewUsers&#45;&gt;\\App\\Http\\Services\\Validations\\DiscountValidationInterface</title>
<path fill="none" stroke="black" stroke-dasharray="1,5" d="M674.98,-431.09C646.73,-433.89 613.66,-437.17 582.6,-440.25"/>
<polygon fill="none" stroke="black" points="582.2,-436.77 572.59,-441.24 582.89,-443.74 582.2,-436.77"/>
</g>
<!-- \\App\\Http\\Services\\Validations\\DiscountByQuantityOfSameItem -->
<g id="node12" class="node">
<title>\\App\\Http\\Services\\Validations\\DiscountByQuantityOfSameItem</title>
<polygon fill="none" stroke="black" points="850.57,-388 644.57,-388 644.57,-352 850.57,-352 850.57,-388"/>
<text text-anchor="middle" x="747.57" y="-367.2" font-family="Courier,monospace" font-size="11.00">DiscountByQuantityOfSameItem</text>
</g>
<!-- \\App\\Http\\Services\\Validations\\DiscountByQuantityOfSameItem&#45;&gt;\\App\\Http\\Services\\Validations\\DiscountValidationInterface -->
<g id="edge3" class="edge">
<title>\\App\\Http\\Services\\Validations\\DiscountByQuantityOfSameItem&#45;&gt;\\App\\Http\\Services\\Validations\\DiscountValidationInterface</title>
<path fill="none" stroke="black" stroke-dasharray="1,5" d="M676.77,-388C665.96,-390.93 654.95,-393.98 644.57,-397 609.31,-407.24 570.24,-419.55 538.41,-429.82"/>
<polygon fill="none" stroke="black" points="537.21,-426.53 528.77,-432.94 539.36,-433.19 537.21,-426.53"/>
</g>
<!-- \\App\\Http\\Services\\Validations\\DiscountForBeingEmployee -->
<g id="node13" class="node">
<title>\\App\\Http\\Services\\Validations\\DiscountForBeingEmployee</title>
<polygon fill="none" stroke="black" points="837.07,-550 658.07,-550 658.07,-514 837.07,-514 837.07,-550"/>
<text text-anchor="middle" x="747.57" y="-529.2" font-family="Courier,monospace" font-size="11.00">DiscountForBeingEmployee</text>
</g>
<!-- \\App\\Http\\Services\\Validations\\DiscountForBeingEmployee&#45;&gt;\\App\\Http\\Services\\Validations\\DiscountValidationInterface -->
<g id="edge5" class="edge">
<title>\\App\\Http\\Services\\Validations\\DiscountForBeingEmployee&#45;&gt;\\App\\Http\\Services\\Validations\\DiscountValidationInterface</title>
<path fill="none" stroke="black" stroke-dasharray="1,5" d="M676.77,-514C665.96,-511.07 654.95,-508.02 644.57,-505 609.31,-494.76 570.24,-482.45 538.41,-472.18"/>
<polygon fill="none" stroke="black" points="539.36,-468.81 528.77,-469.06 537.21,-475.47 539.36,-468.81"/>
</g>
<!-- \\App\\Http\\Services\\Validations\\DiscountByValueOfCategory -->
<g id="node14" class="node">
<title>\\App\\Http\\Services\\Validations\\DiscountByValueOfCategory</title>
<polygon fill="none" stroke="black" points="840.07,-496 655.07,-496 655.07,-460 840.07,-460 840.07,-496"/>
<text text-anchor="middle" x="747.57" y="-475.2" font-family="Courier,monospace" font-size="11.00">DiscountByValueOfCategory</text>
</g>
<!-- \\App\\Http\\Services\\Validations\\DiscountByValueOfCategory&#45;&gt;\\App\\Http\\Services\\Validations\\DiscountValidationInterface -->
<g id="edge6" class="edge">
<title>\\App\\Http\\Services\\Validations\\DiscountByValueOfCategory&#45;&gt;\\App\\Http\\Services\\Validations\\DiscountValidationInterface</title>
<path fill="none" stroke="black" stroke-dasharray="1,5" d="M654.7,-468.9C631.71,-466.62 606.84,-464.15 583.11,-461.8"/>
<polygon fill="none" stroke="black" points="583.32,-458.31 573.02,-460.8 582.63,-465.27 583.32,-458.31"/>
</g>
<!-- \\App\\Http\\Controllers\\CartsController -->
<g id="node16" class="node">
<title>\\App\\Http\\Controllers\\CartsController</title>
<polygon fill="none" stroke="black" points="806.57,-300 688.57,-300 688.57,-264 806.57,-264 806.57,-300"/>
<text text-anchor="middle" x="747.57" y="-279.2" font-family="Courier,monospace" font-size="11.00">CartsController</text>
</g>
<!-- \\App\\Http\\Controllers\\Controller -->
<g id="node17" class="node">
<title>\\App\\Http\\Controllers\\Controller</title>
<polygon fill="none" stroke="black" points="515.07,-273 431.07,-273 431.07,-237 515.07,-237 515.07,-273"/>
<text text-anchor="middle" x="473.07" y="-252.2" font-family="Courier,monospace" font-size="11.00">Controller</text>
</g>
<!-- \\App\\Http\\Controllers\\CartsController&#45;&gt;\\App\\Http\\Controllers\\Controller -->
<g id="edge10" class="edge">
<title>\\App\\Http\\Controllers\\CartsController&#45;&gt;\\App\\Http\\Controllers\\Controller</title>
<path fill="none" stroke="black" d="M688.45,-276.24C640.06,-271.45 571.81,-264.68 525.41,-260.09"/>
<polygon fill="none" stroke="black" points="525.57,-256.59 515.27,-259.08 524.88,-263.55 525.57,-256.59"/>
</g>
<!-- \\Illuminate\\Routing\\Controller -->
<g id="node20" class="node">
<title>\\Illuminate\\Routing\\Controller</title>
<ellipse fill="none" stroke="black" cx="150.79" cy="-255" rx="150.57" ry="18"/>
<text text-anchor="middle" x="150.79" y="-251.3" font-family="Times,serif" font-size="14.00" fill="gray">\Illuminate\Routing\Controller</text>
</g>
<!-- \\App\\Http\\Controllers\\Controller&#45;&gt;\\Illuminate\\Routing\\Controller -->
<g id="edge13" class="edge">
<title>\\App\\Http\\Controllers\\Controller&#45;&gt;\\Illuminate\\Routing\\Controller</title>
<path fill="none" stroke="black" d="M430.86,-255C400.07,-255 355.85,-255 311.66,-255"/>
<polygon fill="none" stroke="black" points="311.64,-251.5 301.64,-255 311.64,-258.5 311.64,-251.5"/>
</g>
<!-- \\App\\Http\\Controllers\\UsersController -->
<g id="node18" class="node">
<title>\\App\\Http\\Controllers\\UsersController</title>
<polygon fill="none" stroke="black" points="806.57,-246 688.57,-246 688.57,-210 806.57,-210 806.57,-246"/>
<text text-anchor="middle" x="747.57" y="-225.2" font-family="Courier,monospace" font-size="11.00">UsersController</text>
</g>
<!-- \\App\\Http\\Controllers\\UsersController&#45;&gt;\\App\\Http\\Controllers\\Controller -->
<g id="edge14" class="edge">
<title>\\App\\Http\\Controllers\\UsersController&#45;&gt;\\App\\Http\\Controllers\\Controller</title>
<path fill="none" stroke="black" d="M688.45,-233.76C640.06,-238.55 571.81,-245.32 525.41,-249.91"/>
<polygon fill="none" stroke="black" points="524.88,-246.45 515.27,-250.92 525.57,-253.41 524.88,-246.45"/>
</g>
</g>
</svg>
